<?xml version="1.0" encoding="UTF-8" standalone="no"?>
<svg
   xmlns:dc="http://purl.org/dc/elements/1.1/"
   xmlns:cc="http://creativecommons.org/ns#"
   xmlns:rdf="http://www.w3.org/1999/02/22-rdf-syntax-ns#"
   xmlns:svg="http://www.w3.org/2000/svg"
   xmlns="http://www.w3.org/2000/svg"
   xmlns:xlink="http://www.w3.org/1999/xlink"
   xmlns:sodipodi="http://sodipodi.sourceforge.net/DTD/sodipodi-0.dtd"
   xmlns:inkscape="http://www.inkscape.org/namespaces/inkscape"
   id="svg2"
   sodipodi:version="0.32"
   inkscape:version="0.91 r13725"
   width="119.7979"
   height="165.01596"
   sodipodi:docname="unpsjb.svg"
   inkscape:output_extension="org.inkscape.output.svg.inkscape"
   version="1.1">
  <metadata
     id="metadata523">
    <rdf:RDF>
      <cc:Work
         rdf:about="">
        <dc:format>image/svg+xml</dc:format>
        <dc:type
           rdf:resource="http://purl.org/dc/dcmitype/StillImage" />
        <dc:title></dc:title>
      </cc:Work>
    </rdf:RDF>
  </metadata>
  <defs
     id="defs521">
    <inkscape:perspective
       sodipodi:type="inkscape:persp3d"
       inkscape:vp_x="0 : 526.18109 : 1"
       inkscape:vp_y="0 : 1000 : 0"
       inkscape:vp_z="744.09448 : 526.18109 : 1"
       inkscape:persp3d-origin="372.04724 : 350.78739 : 1"
       id="perspective330" />
    <marker
       inkscape:stockid="Arrow1Lend"
       orient="auto"
       refY="0"
       refX="0"
       id="Arrow1Lend"
       style="overflow:visible">
      <path
         id="path3337"
         d="M 0,0 5,-5 -12.5,0 5,5 0,0 z"
         style="fill-rule:evenodd;stroke:#000000;stroke-width:1pt;marker-start:none"
         transform="matrix(-0.8,0,0,-0.8,-10,0)"
         inkscape:connector-curvature="0" />
    </marker>
    <linearGradient
       inkscape:collect="always"
       id="linearGradient3153">
      <stop
         style="stop-color:#28170b;stop-opacity:1;"
         offset="0"
         id="stop3155" />
      <stop
         style="stop-color:#28170b;stop-opacity:0;"
         offset="1"
         id="stop3157" />
    </linearGradient>
    <linearGradient
       inkscape:collect="always"
       id="linearGradient3135">
      <stop
         style="stop-color:#28170b;stop-opacity:1;"
         offset="0"
         id="stop3137" />
      <stop
         style="stop-color:#28170b;stop-opacity:0;"
         offset="1"
         id="stop3139" />
    </linearGradient>
    <linearGradient
       id="linearGradient3115">
      <stop
         style="stop-color:#e3dedb;stop-opacity:1;"
         offset="0"
         id="stop3117" />
      <stop
         id="stop3123"
         offset="0.22222222"
         style="stop-color:#e3dedb;stop-opacity:0.49803922;" />
      <stop
         style="stop-color:#e3dedb;stop-opacity:0.24705882;"
         offset="0.22222222"
         id="stop3133" />
      <stop
         style="stop-color:#e3dedb;stop-opacity:0;"
         offset="1"
         id="stop3119" />
    </linearGradient>
    <linearGradient
       inkscape:collect="always"
       id="linearGradient3089">
      <stop
         style="stop-color:white;stop-opacity:1;"
         offset="0"
         id="stop3091" />
      <stop
         style="stop-color:white;stop-opacity:0;"
         offset="1"
         id="stop3093" />
    </linearGradient>
    <linearGradient
       inkscape:collect="always"
       id="linearGradient2170">
      <stop
         style="stop-color:black;stop-opacity:1;"
         offset="0"
         id="stop2172" />
      <stop
         style="stop-color:black;stop-opacity:0;"
         offset="1"
         id="stop2174" />
    </linearGradient>
    <linearGradient
       inkscape:collect="always"
       id="linearGradient3134">
      <stop
         style="stop-color:#b0b0b0;stop-opacity:1;"
         offset="0"
         id="stop3136" />
      <stop
         style="stop-color:#b0b0b0;stop-opacity:0;"
         offset="1"
         id="stop3138" />
    </linearGradient>
    <linearGradient
       inkscape:collect="always"
       id="linearGradient3120">
      <stop
         style="stop-color:#b0b0b0;stop-opacity:1;"
         offset="0"
         id="stop3122" />
      <stop
         style="stop-color:#b0b0b0;stop-opacity:0;"
         offset="1"
         id="stop3124" />
    </linearGradient>
    <linearGradient
       inkscape:collect="always"
       id="linearGradient3044">
      <stop
         style="stop-color:black;stop-opacity:1;"
         offset="0"
         id="stop3046" />
      <stop
         style="stop-color:black;stop-opacity:0;"
         offset="1"
         id="stop3048" />
    </linearGradient>
    <linearGradient
       id="linearGradient3313">
      <stop
         id="stop3315"
         offset="0"
         style="stop-color:#003380;stop-opacity:0;" />
      <stop
         style="stop-color:#003380;stop-opacity:0.60833335;"
         offset="0.75555557"
         id="stop2151" />
      <stop
         id="stop3317"
         offset="1"
         style="stop-color:#003380;stop-opacity:0.70833325;" />
    </linearGradient>
    <linearGradient
       inkscape:collect="always"
       id="linearGradient3283">
      <stop
         style="stop-color:white;stop-opacity:1;"
         offset="0"
         id="stop3285" />
      <stop
         style="stop-color:white;stop-opacity:0;"
         offset="1"
         id="stop3287" />
    </linearGradient>
    <radialGradient
       inkscape:collect="always"
       xlink:href="#linearGradient3313"
       id="radialGradient2149"
       cx="25.21307"
       cy="579.40759"
       fx="25.21307"
       fy="579.40759"
       r="45.389446"
       gradientTransform="matrix(1.554539,-0.04770858,0.05216418,1.698813,-44.87423,-412.6246)"
       gradientUnits="userSpaceOnUse" />
    <linearGradient
       inkscape:collect="always"
       xlink:href="#linearGradient3120"
       id="linearGradient3128"
       x1="62.173267"
       y1="568.38214"
       x2="60.905228"
       y2="619.8645"
       gradientUnits="userSpaceOnUse" />
    <radialGradient
       inkscape:collect="always"
       xlink:href="#linearGradient3044"
       id="radialGradient3411"
       gradientUnits="userSpaceOnUse"
       gradientTransform="matrix(1,0,0,0.151316,0,579.4533)"
       cx="53.419399"
       cy="682.76672"
       fx="53.419399"
       fy="682.76672"
       r="50.748432" />
    <linearGradient
       inkscape:collect="always"
       xlink:href="#linearGradient3120"
       id="linearGradient3413"
       gradientUnits="userSpaceOnUse"
       x1="62.173267"
       y1="568.38214"
       x2="60.905228"
       y2="619.8645" />
    <radialGradient
       inkscape:collect="always"
       xlink:href="#linearGradient3313"
       id="radialGradient3415"
       gradientUnits="userSpaceOnUse"
       gradientTransform="matrix(2.473497,-0.02861207,0.02944879,2.537294,-54.8825,-898.9284)"
       cx="25.21307"
       cy="579.40759"
       fx="25.21307"
       fy="579.40759"
       r="45.389446" />
    <linearGradient
       inkscape:collect="always"
       xlink:href="#linearGradient3283"
       id="linearGradient3417"
       gradientUnits="userSpaceOnUse"
       x1="18.362919"
       y1="574.75934"
       x2="18.029045"
       y2="601.46906" />
    <radialGradient
       inkscape:collect="always"
       xlink:href="#linearGradient3134"
       id="radialGradient3419"
       gradientUnits="userSpaceOnUse"
       gradientTransform="matrix(1,0,0,0.952381,0,25.18339)"
       cx="103.83396"
       cy="554.09271"
       fx="103.83396"
       fy="554.09271"
       r="35.05648" />
    <linearGradient
       inkscape:collect="always"
       xlink:href="#linearGradient2170"
       id="linearGradient2176"
       x1="241.72278"
       y1="-5.9520936"
       x2="241.72278"
       y2="-58.151131"
       gradientUnits="userSpaceOnUse"
       gradientTransform="matrix(0.829657,0,0,0.829656,-0.553997,-11.86091)" />
    <linearGradient
       inkscape:collect="always"
       xlink:href="#linearGradient3089"
       id="linearGradient3095"
       x1="186.30016"
       y1="87.474289"
       x2="184.29692"
       y2="116.85496"
       gradientUnits="userSpaceOnUse" />
    <linearGradient
       inkscape:collect="always"
       xlink:href="#linearGradient3089"
       id="linearGradient3101"
       gradientUnits="userSpaceOnUse"
       x1="186.30016"
       y1="87.474289"
       x2="184.29692"
       y2="116.85496" />
    <linearGradient
       inkscape:collect="always"
       xlink:href="#linearGradient3089"
       id="linearGradient3107"
       gradientUnits="userSpaceOnUse"
       x1="186.30016"
       y1="87.474289"
       x2="184.29692"
       y2="116.85496" />
    <linearGradient
       inkscape:collect="always"
       xlink:href="#linearGradient3115"
       id="linearGradient3121"
       x1="219.08467"
       y1="140.13893"
       x2="212.47435"
       y2="145.56883"
       gradientUnits="userSpaceOnUse"
       spreadMethod="reflect"
       gradientTransform="translate(33.9959,-39.66188)" />
    <linearGradient
       inkscape:collect="always"
       xlink:href="#linearGradient3115"
       id="linearGradient3129"
       gradientUnits="userSpaceOnUse"
       spreadMethod="reflect"
       x1="219.08467"
       y1="140.13893"
       x2="212.47435"
       y2="145.56883"
       gradientTransform="matrix(-0.946449,-0.322855,-0.322855,0.946449,555.2866,93.64274)" />
    <radialGradient
       inkscape:collect="always"
       xlink:href="#linearGradient3135"
       id="radialGradient3141"
       cx="230.62155"
       cy="166.35136"
       fx="230.62155"
       fy="166.35136"
       r="7.7625065"
       gradientTransform="matrix(1.409259,0,0,1.045578,-94.38386,-8.91758)"
       gradientUnits="userSpaceOnUse" />
    <radialGradient
       inkscape:collect="always"
       xlink:href="#linearGradient3135"
       id="radialGradient3145"
       gradientUnits="userSpaceOnUse"
       gradientTransform="matrix(1.409259,0,0,1.045578,-94.38386,-8.91758)"
       cx="230.62155"
       cy="166.35136"
       fx="230.62155"
       fy="166.35136"
       r="7.7625065" />
    <radialGradient
       inkscape:collect="always"
       xlink:href="#linearGradient3135"
       id="radialGradient3149"
       gradientUnits="userSpaceOnUse"
       gradientTransform="matrix(1.409259,0,0,1.045578,-94.38386,-8.91758)"
       cx="230.62155"
       cy="166.35136"
       fx="230.62155"
       fy="166.35136"
       r="7.7625065" />
    <radialGradient
       inkscape:collect="always"
       xlink:href="#linearGradient3153"
       id="radialGradient3159"
       cx="234.04375"
       cy="183.29533"
       fx="234.04375"
       fy="183.29533"
       r="57.091984"
       gradientTransform="matrix(1,0,0,0.09941521,0,165.073)"
       gradientUnits="userSpaceOnUse" />
    <linearGradient
       inkscape:collect="always"
       xlink:href="#linearGradient3115"
       id="linearGradient3902"
       gradientUnits="userSpaceOnUse"
       gradientTransform="translate(33.9959,-39.66188)"
       spreadMethod="reflect"
       x1="219.08467"
       y1="140.13893"
       x2="212.47435"
       y2="145.56883" />
  </defs>
  <sodipodi:namedview
     inkscape:window-height="714"
     inkscape:window-width="1009"
     inkscape:pageshadow="2"
     inkscape:pageopacity="0"
     guidetolerance="10.0"
     gridtolerance="10.0"
     objecttolerance="10.0"
     borderopacity="1.0"
     bordercolor="#666666"
     pagecolor="#ffffff"
     id="base"
     inkscape:zoom="1.0589513"
     inkscape:cx="37.01216"
     inkscape:cy="-15.18752"
     inkscape:window-x="0"
     inkscape:window-y="0"
     inkscape:current-layer="svg2"
     showgrid="false"
     fit-margin-top="0"
     fit-margin-left="0"
     fit-margin-right="0"
     fit-margin-bottom="0"
     inkscape:window-maximized="0" />
  <g
     id="g2391"
     style="fill:#00ffff"
     transform="translate(-6.8770682,155.40933)" />
  <g
     id="g3142"
     transform="translate(-26.241598,-444.63297)"
     inkscape:export-filename="/home/defo/Documentos/Universidad/Logo/unpsjb_big_big.png"
     inkscape:export-xdpi="2178.75"
     inkscape:export-ydpi="2178.75">
    <path
       transform="translate(37.39358,-80.79684)"
       d="m 104.16783,682.76672 a 50.748432,7.679039 0 0 1 -50.748431,7.67904 50.748432,7.679039 0 0 1 -50.7484319,-7.67904 50.748432,7.679039 0 0 1 50.7484319,-7.67904 50.748432,7.679039 0 0 1 50.748431,7.67904 z"
       sodipodi:ry="7.679039"
       sodipodi:rx="50.748432"
       sodipodi:cy="682.76672"
       sodipodi:cx="53.419399"
       id="path2155"
       style="opacity:0.36290325;color:#000000;fill:url(#radialGradient3411);fill-opacity:1;fill-rule:nonzero;stroke:none;stroke-width:0.2;marker:none;visibility:visible;display:inline;overflow:visible"
       sodipodi:type="arc" />
    <g
       id="g3052"
       style="fill:#ffffff;fill-opacity:1;stroke:#000000;stroke-width:0.21600001;stroke-opacity:1"
       transform="matrix(1.316487,0,0,1.316487,20.64818,-271.1657)">
      <path
         id="path3054"
         d="m 49.824,543.826 0,0 c 24.408,0 42.336,20.664 44.28,39.24 1.368,13.248 1.584,26.496 -0.648,39.744 -3.168,18.288 -19.656,39.168 -43.632,39.168 l 0,0 c -23.976,0 -41.904,-20.304 -44.28,-39.168 -1.584,-13.248 -1.584,-26.496 0,-39.744 2.376,-19.008 19.944,-39.24 44.28,-39.24 z"
         style="fill:#ffffff;fill-opacity:1;stroke:#000000;stroke-opacity:1"
         inkscape:connector-curvature="0" />
    </g>
    <g
       transform="matrix(1.302314,0,0,-1.302314,21.35318,1307.714)"
       style="opacity:0.26209675;fill:url(#linearGradient3128);fill-opacity:1;stroke:none"
       id="g3116">
      <path
         style="fill:url(#linearGradient3413);fill-opacity:1;stroke:none"
         d="m 49.824,543.826 0,0 c 24.408,0 42.336,20.664 44.28,39.24 1.368,13.248 1.584,26.496 -0.648,39.744 -3.168,18.288 -19.656,39.168 -43.632,39.168 l 0,0 c -23.976,0 -41.904,-20.304 -44.28,-39.168 -1.584,-13.248 -1.584,-26.496 0,-39.744 2.376,-19.008 19.944,-39.24 44.28,-39.24 z"
         id="path3118"
         inkscape:connector-curvature="0" />
    </g>
    <g
       transform="translate(36.0581,-80.79684)"
       style="fill:#5fbcd3"
       id="g2387">
      <path
         style="fill:#5fbcd3"
         id="path2389"
         transform="translate(0,-160)"
         d="m 49.6875,703.8125 c -24.264,0.072 -41.7802501,20.31402 -44.15625,39.25 -1.584,13.248 -1.5840001,26.502 0,39.75 2.304,18.792 20.32425,39.08422 44.15625,39.15625 l 0.125,0 c 23.976,0 40.488249,-20.86825 43.65625,-39.15625 2.232,-13.248 1.993004,-26.50198 0.625,-39.75 -1.944,-18.576 -19.873251,-39.24999 -44.28125,-39.25 l -0.125,0 z m 29.375,18.71875 c 0,0.648 0.072,1.75825 0,2.40625 -0.216,1.728 -1.532752,3.44453 -2.46875,4.8125 -2.304,2.592 -4.439252,5.24901 -7.03125,7.625 -1.008,1.008 -1.436248,2.1605 -2.15625,3.3125 l -2.46875,7.34375 -0.0625,0.15625 c -0.648,0.648 -0.711998,1.50152 -1,2.4375 l -5.78125,9.65625 -3.375,4.875 -0.0625,0.15625 c 0.864,2.808 3.531499,4.45824 5.1875,6.90625 0.576,1.152 0.718752,2.29776 0.71875,3.59375 -1.512,0.792 -3.7475,0.58273 -5.1875,-0.28125 -1.8,-1.728 -3.5275,-2.30848 -5.6875,-2.8125 -0.576,-0.144 -1.174,-0.26222 -1.75,-0.40625 -0.864,0.864 -1.635999,1.14824 -2.5,2.15625 l -0.375,0.5 -0.28125,0.21875 c -0.216,0.72 -1.35875,1.56126 -1.71875,2.28125 -2.808,3.168 -6.417498,4.60648 -8.9375,8.0625 l -1.875,2.03125 c -0.504,2.088 -1.504249,3.8875 -2.65625,5.6875 l -7.0625,9.5625 -2.09375,0.8125 c -0.072,-2.808 -0.33825,-6.19198 0.09375,-9 0.288,-3.096 2.583001,-8.93225 3.375,-10.15625 1.008,-2.52 2.3155,-4.45949 4.1875,-6.1875 0.864,-0.792 2.3045,-2.0205 3.3125,-2.8125 3.6,-2.808 5.876502,-4.6135 6.8125,-9.4375 -1.296,-1.296 -1.771751,-2.94052 -1.84375,-4.8125 -0.288,-1.224 -1.52325,-1.51648 -2.53125,-2.8125 -0.864,-1.008 -1.941749,-2.37903 -3.09375,-1.875 l -1.3125,0.34375 c 0.864,-2.088 1.5805,-3.28803 3.8125,-3 l 0.53125,0.0625 0.34375,0.15625 c 0.504,0.144 0.933499,0.428 1.4375,0.5 2.088,-0.072 3.953999,-0.0745 5.25,1.4375 l 0.71875,0.125 c 1.656,-0.144 3.25975,0.88324 4.84375,1.53125 0.72,-1.728 1.9445,-2.39548 3.3125,-3.1875 0.504,-0.288 0.933501,-0.5775 1.4375,-0.9375 L 52.40625,752 c 0.576,-2.52 2.67,-7.13351 3.75,-9.4375 0.36,-1.512 0.808499,-2.36973 1.3125,-3.59375 0.936,-1.656 3.088499,-4.16999 4.3125,-5.25 1.728,-1.584 3.580498,-2.89977 5.8125,-4.84375 3.096,-2.376 5.785747,-3.45675 8.59375,-4.96875 0.792,-0.36 2.083,-0.87102 2.875,-1.375 z"
         inkscape:connector-curvature="0" />
    </g>
    <g
       transform="translate(36.39197,-80.35503)"
       style="fill:url(#radialGradient2149);fill-opacity:1;stroke:none"
       id="g3037">
      <path
         style="fill:url(#radialGradient3415);fill-opacity:1;stroke:none"
         d="m 49.824,543.826 0,0 c 24.408,0 42.336,20.664 44.28,39.24 1.368,13.248 1.584,26.496 -0.648,39.744 -3.168,18.288 -19.656,39.168 -43.632,39.168 l 0,0 c -23.976,0 -41.904,-20.304 -44.28,-39.168 -1.584,-13.248 -1.584,-26.496 0,-39.744 2.376,-19.008 19.944,-39.24 44.28,-39.24 z"
         id="path3039"
         inkscape:connector-curvature="0" />
    </g>
    <g
       transform="translate(36.0581,-80.79684)"
       id="g4"
       style="fill:none;stroke:#000000;stroke-width:0.21600001">
      <path
         id="path6"
         d="m 49.824,543.826 0,0 c 24.408,0 42.336,20.664 44.28,39.24 1.368,13.248 1.584,26.496 -0.648,39.744 -3.168,18.288 -19.656,39.168 -43.632,39.168 l 0,0 c -23.976,0 -41.904,-20.304 -44.28,-39.168 -1.584,-13.248 -1.584,-26.496 0,-39.744 2.376,-19.008 19.944,-39.24 44.28,-39.24 z"
         inkscape:connector-curvature="0" />
    </g>
    <g
       transform="translate(36.0581,-80.79684)"
       id="g8"
       style="fill:#ffffff">
      <path
         id="path10"
         d="m 67.608,568.882 c 3.096,-2.376 5.76,-3.456 8.568,-4.968 0.792,-0.36 2.088,-0.864 2.88,-1.368 0,0.648 0.072,1.728 0,2.376 -0.216,1.728 -1.512,3.456 -2.448,4.824 -2.304,2.592 -4.464,5.256 -7.056,7.632 -1.008,1.008 -1.44,2.16 -2.16,3.312 l -2.448,7.344 -0.072,0.144 c -0.648,0.648 -0.72,1.512 -1.008,2.448 l -5.76,9.648 -3.384,4.896 -0.072,0.144 c 0.864,2.808 3.528,4.464 5.184,6.912 0.576,1.152 0.72,2.304 0.72,3.6 -1.512,0.792 -3.744,0.576 -5.184,-0.288 -2.232,-2.16 -4.464,-2.52 -7.416,-3.24 -0.864,0.864 -1.656,1.152 -2.52,2.16 l -0.36,0.504 -0.288,0.216 c -0.216,0.72 -1.368,1.584 -1.728,2.304 -2.808,3.168 -6.408,4.608 -8.928,8.064 l -1.872,2.016 c -0.504,2.088 -1.512,3.888 -2.664,5.688 l -7.056,9.576 -2.088,0.792 c -0.072,-2.808 -0.36,-6.192 0.072,-9 0.288,-3.096 2.592,-8.928 3.384,-10.152 1.008,-2.52 2.304,-4.464 4.176,-6.192 0.864,-0.792 2.304,-2.016 3.312,-2.808 3.6,-2.808 5.904,-4.608 6.84,-9.432 -1.296,-1.296 -1.8,-2.952 -1.872,-4.824 -0.288,-1.224 -1.512,-1.512 -2.52,-2.808 -0.864,-1.008 -1.944,-2.376 -3.096,-1.872 l -1.296,0.36 c 0.864,-2.088 1.584,-3.312 3.816,-3.024 l 0.504,0.072 0.36,0.144 c 0.504,0.144 0.936,0.432 1.44,0.504 2.088,-0.072 3.96,-0.072 5.256,1.44 l 0.72,0.144 c 1.656,-0.144 3.24,0.864 4.824,1.512 0.936,-2.376 2.88,-2.664 4.752,-4.104 l 1.296,-1.584 c 0.576,-2.52 2.664,-7.128 3.744,-9.432 0.36,-1.512 0.792,-2.376 1.296,-3.6 0.936,-1.656 3.096,-4.176 4.32,-5.256 1.728,-1.584 3.6,-2.88 5.832,-4.824 z"
         inkscape:connector-curvature="0" />
    </g>
    <g
       transform="translate(36.0581,-80.79684)"
       id="g12"
       style="fill:#000000">
      <path
         id="path14"
         d="m 21.312,642.178 c -0.432,-5.76 -0.216,-11.448 3.168,-17.28 0.864,-0.792 -2.304,5.832 -1.728,8.064 l 1.44,-3.744 -0.792,3.528 0.288,-0.144 1.08,-3.888 c 0,1.152 -1.152,2.664 -0.072,3.744 l 0.288,-0.144 0.72,-3.744 0.216,3.312 c 0.72,-2.304 -0.072,-4.248 0.072,-6.624 l -0.072,-0.504 c -0.216,-0.432 0.288,-0.864 0.216,-1.296 l 0.36,3.6 0.216,-0.36 c 0.072,-1.008 0.792,-1.8 0.504,-2.88 0.432,0.648 0,1.296 0.504,2.016 l 0.504,0 c 0.432,-1.008 0.216,-2.016 0.36,-3.096 0.576,0.288 0.216,1.368 0.72,2.016 0.864,-0.36 0.072,-1.728 0.576,-2.232 0.216,0.504 0.288,1.008 0.576,1.584 l 0.144,-0.072 c 0.36,-0.72 0,-1.656 0.216,-2.448 0.072,0.36 0.216,0.792 0.504,1.296 l 0.288,-0.144 c 0.432,-0.504 -0.072,-1.44 0.36,-1.872 0.216,0.072 0.216,0.72 0.648,0.864 l 0.072,-0.576 -0.144,-0.72 c 0.432,-0.072 0.288,0.648 0.864,0.432 0,-0.288 -0.432,-0.792 -0.144,-1.08 0.144,0.216 0.216,0.504 0.576,0.648 0.432,-0.072 -0.072,-0.648 -0.216,-1.008 l 0.216,-0.072 c 0.216,0.288 0.288,0.504 0.72,0.72 0.432,-0.216 -0.072,-0.792 -0.288,-1.296 0.288,-0.144 0.36,0.216 0.72,0.288 0.216,-0.144 -0.216,-0.36 0,-0.576 0.36,-0.216 0.288,0.432 0.72,0.072 0.144,-0.504 -0.432,-0.576 -0.36,-1.008 0.504,0 0.504,0.36 0.936,0.504 l 0.216,-0.216 c -0.072,-0.36 -0.36,-0.576 -0.504,-0.936 l -0.36,0 -1.728,1.584 -0.072,-0.216 3.168,-3.024 0.432,-0.216 0.216,-0.36 c 0.648,-0.144 1.296,-1.008 1.296,-1.872 0.216,0 0.36,0.072 0.648,0.288 0.144,-0.36 -0.432,-0.432 -0.216,-0.864 l 0.36,0.216 c 0.144,-0.36 0.36,-0.648 0.36,-1.08 0.216,-0.072 0.36,0.072 0.648,0.144 l 0.072,-0.144 c -0.072,-0.288 -0.216,-0.36 -0.432,-0.72 0.216,0 0.432,0.072 0.72,0.288 0.144,-0.288 -0.216,-0.36 -0.288,-0.72 0.216,-0.144 0.36,0.072 0.648,0.144 0.288,-0.36 -0.288,-0.432 -0.36,-0.792 0.432,-0.072 0.504,0.432 1.008,0.36 0.072,-0.36 -0.576,-0.36 -0.288,-0.72 0.072,0 0.288,0.288 0.576,0.072 0,-0.072 -0.576,-0.36 -0.288,-0.648 0.288,0.216 0.432,0.504 0.576,0.864 -0.144,0.072 -0.144,0.432 -0.288,0.72 l -0.504,0 -0.072,0.144 0.216,0.432 c 0.216,0.144 0.504,0.144 0.864,0.36 l -0.072,-0.504 c 0.144,-0.576 0.504,0.288 0.864,0 l -0.288,-0.576 c 0.216,-0.216 0.576,0.216 0.864,0 0.576,0.648 1.872,1.656 2.88,1.44 l -0.144,-0.648 5.832,1.8 c -0.36,-0.792 -1.512,-1.008 -1.872,-1.944 l 5.976,4.248 c 0,-0.288 -0.36,-0.072 -0.36,-0.432 0.36,-0.144 0.576,0.36 1.008,0.504 l 0.072,-0.144 c 0,-0.288 -0.36,-0.288 -0.504,-0.648 l 0.144,-0.072 c 0.216,0.144 0.36,0.36 0.72,0.504 -1.152,-1.8 -2.664,-2.88 -4.392,-4.32 2.088,0.432 3.168,2.52 5.112,3.528 l 0.144,-0.216 c 0,-0.216 -0.36,-0.216 -0.576,-0.576 0.216,-0.216 0.432,0.36 0.72,0.072 -0.072,-0.288 -0.432,-0.36 -0.648,-0.648 0.216,-0.144 0.36,0 0.648,0.144 -1.728,-1.656 -3.816,-3.888 -5.616,-6.48 l -1.08,-1.8 0.144,-0.216 c 0.288,0 0.432,0.216 0.576,0.576 0.576,-0.072 0.936,-0.864 0.864,-1.44 -0.648,-1.08 -2.52,-1.224 -3.6,-2.304 0.432,-0.216 1.08,0.936 1.944,0.792 -0.288,-0.936 -1.224,-1.008 -1.8,-1.8 l 0.432,0 c -0.288,0 -0.144,-0.576 0.144,-0.432 l -0.144,-0.504 c -0.576,-0.144 -0.864,-0.216 -0.648,0.288 -0.432,0.72 -1.008,-0.144 -1.512,-0.36 0.072,-0.36 0.72,0.216 1.152,0.432 l 0.072,-0.216 c -0.144,-0.216 -0.36,-0.504 -0.72,-0.648 0.504,-0.144 0.864,0.36 1.368,0.216 0,-0.432 -0.504,-0.504 -0.792,-0.864 0.144,-0.432 0.864,0.432 1.152,-0.072 -0.072,-0.432 -0.648,-0.36 -0.864,-0.792 -0.72,0.576 -1.296,1.944 -2.52,1.872 -0.144,0 -0.36,-0.072 -0.72,-0.504 0.504,-2.376 2.952,-3.24 4.896,-4.464 l 0.072,0.216 c -1.44,1.368 -3.096,2.232 -4.68,4.104 0.288,0.432 0.648,0.288 1.224,0.072 0.432,-0.36 0.792,-1.152 1.44,-1.584 0.36,0.072 0.792,0.648 1.224,0.432 0,-0.36 -0.288,-0.36 -0.432,-0.72 0.36,-0.144 0.72,0.432 1.152,0.288 -0.144,-0.288 -0.432,-0.36 -0.72,-0.72 0.288,0 0.72,0.36 1.08,0.36 0.144,-0.504 -0.504,-0.36 -0.648,-0.936 0.288,-0.288 0.504,0.288 0.864,0.144 0,-0.432 -0.576,-0.288 -0.648,-0.648 0.288,-0.144 0.72,0.216 1.08,0.072 0,-0.072 -0.288,-0.288 -0.072,-0.504 0.216,0.072 0.36,0.216 0.504,0.576 0,0.504 -0.648,0 -0.432,0.648 l -0.504,0.072 c 0.072,0.216 0.144,0.504 0.288,0.72 -0.144,0.288 -0.432,-0.144 -0.72,0 0.216,0.432 0.864,0.36 1.224,0.648 -0.288,-0.432 0.432,-0.432 0.144,-1.08 0.144,0 0.144,0.288 0.36,0.432 -0.072,0.216 -0.36,0.432 -0.072,0.72 0.288,0.144 0.504,0.576 1.008,0.504 l 0.072,-0.288 c 0.072,0 0.504,0.36 0.288,0.576 l -0.504,0 c 0.288,0.288 -0.072,0.72 -0.432,0.504 0.072,0.144 0.144,0.432 0.36,0.72 -0.288,0.36 -0.792,-0.504 -1.08,0 0.288,0 0.144,0.36 0.432,0.432 0,0.36 -0.36,0 -0.576,0 l -0.216,0.144 0,0.36 -0.576,0 c 0,0.216 0.288,0.36 0.072,0.648 l -0.504,0 2.376,2.376 0.936,-1.44 -0.288,-0.288 c -0.072,-0.216 -0.216,-0.504 -0.504,-0.72 l 0.216,-0.144 c 0.288,0.216 0.36,0.648 0.792,0.864 l 0.36,-0.216 c 0,-0.648 -0.792,-0.648 -1.008,-1.224 0.432,0.072 0.648,0.504 1.152,0.792 0.288,-0.072 0.504,-0.504 0.504,-0.864 -0.216,-0.288 -0.72,-0.432 -0.936,-0.936 0.432,0.216 0.864,0.864 1.152,0.72 0.432,-0.864 -0.792,-0.648 -1.008,-1.584 0.432,0.072 0.792,0.864 1.512,0.792 0.432,-0.504 -0.72,-0.648 -1.224,-1.368 0.504,0 1.08,0.36 1.44,0.72 l 1.8,-2.304 -0.216,-0.144 1.224,-2.232 c -0.576,-0.288 -1.872,-0.576 -1.728,-0.864 l 1.944,0.648 c 0.432,-0.288 0.288,-0.864 0.36,-1.368 -0.504,-0.288 -0.936,-0.36 -1.584,-0.72 -0.432,-0.432 1.08,0.36 1.728,0.432 0.648,-0.072 0.792,-0.864 1.368,-1.368 l 0,-0.504 1.368,-2.736 c -0.504,-0.216 -2.952,-0.576 -2.232,-0.648 l 2.232,0.432 0.144,-0.288 c -0.576,-0.432 -3.672,-0.72 -2.232,-0.792 0.648,0.144 1.296,0.36 2.016,0.504 0.216,-0.072 0.288,-0.144 0.504,-0.432 l -0.144,-0.432 c -0.792,-0.072 -3.744,-0.072 -2.376,-0.288 l 2.664,0 c 0.216,0 0.36,-0.36 0.576,-0.72 l -0.144,-0.144 -3.096,0.288 c -1.152,-0.144 2.016,-0.216 3.096,-0.648 0.648,-0.504 0.576,-1.368 0.864,-2.088 -0.36,0 -2.016,1.152 -1.368,0.432 0.36,-0.288 1.008,-0.432 1.44,-0.792 l 0.72,-1.872 -0.36,-0.216 c -0.216,-0.144 0.36,-0.504 -0.072,-0.648 -2.016,2.232 -4.752,4.032 -3.888,3.168 l 3.888,-3.456 c 0.144,-0.144 0.432,-0.216 0.504,-0.36 l -0.288,-0.36 c 0,-0.288 0.36,-0.144 0.36,-0.504 l -0.144,-0.432 1.224,-1.152 c -0.072,-0.288 -0.432,-0.072 -0.72,0 l -0.072,-0.216 c 0.072,-0.072 0.36,-0.144 0.648,-0.36 l -0.216,-0.36 -0.072,-0.144 c 0,-0.216 0.072,-0.576 0.36,-0.648 0.072,-0.36 -0.576,0.576 -0.792,0.072 -1.512,1.224 -4.968,3.96 -4.32,2.88 l 4.608,-3.456 0.576,-0.36 -0.432,-0.216 c 0.576,-0.504 1.008,-1.512 1.728,-1.944 l -0.216,-0.216 c 0,-0.432 0.576,-0.504 1.008,-0.792 l 0,-0.576 c -0.216,-0.072 -0.576,0.144 -0.72,-0.144 2.52,-2.16 6.192,-3.672 9.504,-5.688 0.288,2.16 -1.296,4.104 -2.448,5.832 l -5.544,6.336 c -1.584,1.296 -2.592,2.808 -3.744,4.752 l -2.304,7.2 c -0.144,0.36 -0.36,0.216 -0.576,0.72 l -0.576,1.944 -5.76,9.648 -3.312,4.824 -0.288,0.288 c 1.224,4.32 6.336,5.688 5.976,10.008 -1.008,0.648 -2.448,0.72 -3.672,0 -2.16,-2.16 -5.112,-2.808 -8.28,-3.6 -0.936,1.08 -2.52,1.656 -3.384,3.096 l -0.36,0.144 c -0.072,0.792 -1.008,1.296 -1.368,2.016 -2.736,3.312 -6.84,4.968 -9.216,8.424 l -1.944,2.088 c -0.504,2.016 -1.44,3.96 -2.664,5.688 l -6.912,9.072 -0.648,0.144 z"
         inkscape:connector-curvature="0" />
    </g>
    <g
       transform="translate(36.0581,-80.79684)"
       id="g16"
       style="fill:#000000">
      <path
         id="path18"
         d="m 26.64,631.306 c -0.36,-1.944 0.144,-3.888 0.648,-5.832 0.072,0.216 0.216,0.72 0.576,0.792 l 0.36,-0.072 c 0.432,-0.72 0.504,-1.656 0.504,-2.448 0.144,0.36 0,1.08 0.576,1.44 0.432,-0.144 0.504,-0.936 0.72,-1.44 0,0.144 0.072,0.432 0.216,0.72 l 0.288,0.072 c 0.144,-0.288 0.504,-0.864 0.432,-1.296 l 0.72,0.072 c 0.36,-0.648 0.288,-1.152 0.36,-1.872 0.216,0 0.144,0.576 0.576,0.72 l 0.216,-0.216 c 0.288,-0.288 0,-0.648 0,-1.008 l 0.432,0.288 c 0.216,-0.072 0.36,-0.432 0.288,-0.72 l 0.36,0.288 c 0.576,0.072 -0.072,-0.792 0.648,-0.36 0.432,-0.072 0.36,-0.432 0.36,-0.936 l 0.288,0 c 0.216,-0.072 0.072,-0.36 0.144,-0.576 l 0.504,0 c 0.072,-0.216 0,-0.432 0.072,-0.72 l 0.576,0.144 c 0.216,-0.072 0.288,-0.432 0.144,-0.792 0.144,0 0.432,0.36 0.72,0.072 l 0,-0.504 0.72,0 0.144,-0.288 c 0.072,-0.36 -0.288,-0.576 -0.432,-1.008 l -0.432,0 c 0.072,0.288 0.288,0.576 0.432,0.936 -0.432,0.072 -0.36,-0.504 -0.792,-0.576 l -0.288,0.072 c -0.072,0.36 0.144,0.576 0.36,0.936 -0.36,0 -0.576,-0.288 -0.936,-0.576 l 0.216,-0.432 c 0.288,-0.144 0.792,-0.144 0.864,-0.72 0.576,0 0.72,0.648 1.368,0.792 l 0.576,-0.144 0,-0.576 c 0,-0.072 0.216,-0.144 0.504,-0.288 l 0,-0.648 0.432,0.144 c 0.288,-0.072 0.504,-0.36 0.288,-0.72 l 2.448,1.512 c 0,0.288 -0.216,0.72 -0.432,0.936 -0.648,-0.216 -0.864,-1.368 -1.656,-1.368 0.36,0.432 1.512,1.368 1.008,2.16 -0.504,-0.648 -0.72,-1.44 -1.656,-1.872 l -0.144,0.072 c 0.36,0.576 1.656,1.368 1.152,2.448 -0.072,0 -0.288,0.072 -0.504,0.288 -0.576,-0.36 -0.864,-1.152 -1.44,-1.584 0,0.864 0.864,1.224 1.224,1.944 -0.432,0.072 -0.648,0.432 -1.08,0.576 l -1.44,-1.512 1.008,1.8 -0.36,0.288 -1.368,-1.368 0.792,1.656 -0.216,0.072 -1.224,-1.512 c -0.072,0.504 0.648,0.936 0.936,1.584 -0.072,0.216 -0.216,0.432 -0.648,0.576 -0.288,-0.36 -0.288,-1.008 -0.792,-1.224 0,0.648 0.72,1.008 0.648,1.656 -0.216,0 -0.36,0.288 -0.648,0.072 -0.144,-0.288 -0.288,-0.792 -0.648,-0.864 0,0.432 0.36,0.792 0.576,1.296 l -0.288,0.288 c -0.36,-0.216 -0.288,-0.792 -0.648,-1.224 l -0.216,0.072 c 0.144,0.648 0.792,1.368 0.216,2.088 l -0.144,0.072 c -0.216,-0.72 -0.072,-1.512 -0.576,-2.016 l 0.144,2.592 c -0.36,0.288 -0.576,0.648 -1.008,1.008 l -0.36,-2.016 c -0.288,0.72 0.072,1.512 0,2.304 -0.432,-0.432 0,-1.296 -0.504,-1.944 -0.36,0.648 0.144,1.872 0,2.808 -0.36,0.216 -0.504,0.648 -1.008,0.864 -0.288,-0.576 -0.144,-1.152 -0.504,-1.8 l -0.144,-0.144 c -0.288,0.864 0.504,1.584 0.072,2.448 -0.432,0 -0.144,0.288 -0.36,0.648 -0.792,-0.792 -0.144,-2.304 -0.72,-3.24 l -0.072,4.32 c -0.72,-0.72 -0.288,-2.16 -0.648,-2.952 l -0.288,3.744 c -0.072,-0.072 -0.216,-0.432 -0.432,-0.792 -0.504,0.288 0,1.44 -0.72,1.872 -0.432,-0.36 -0.216,-1.08 -0.216,-1.584 -0.504,0.216 -0.288,1.224 -0.648,1.944 l -0.216,0.288 z"
         inkscape:connector-curvature="0" />
    </g>
    <g
       transform="translate(36.0581,-80.79684)"
       id="g20"
       style="fill:#000000">
      <path
         id="path22"
         d="m 25.056,628.066 0.792,-1.656 c 0.144,0.576 -0.504,2.088 -0.72,1.656 l -0.072,0 z"
         inkscape:connector-curvature="0" />
    </g>
    <g
       transform="translate(36.0581,-80.79684)"
       id="g24"
       style="fill:#000000">
      <path
         id="path26"
         d="m 27.36,627.994 c -0.072,-0.288 0.072,-1.152 0.288,-0.936 -0.072,0.288 0.36,0.504 -0.288,0.936 z"
         inkscape:connector-curvature="0" />
    </g>
    <g
       transform="translate(36.0581,-80.79684)"
       id="g28"
       style="fill:#000000">
      <path
         id="path30"
         d="m 24.768,627.346 c -0.144,-0.288 0.36,-2.232 0.432,-1.368 -0.072,0.288 -0.216,0.72 -0.216,1.08 l -0.216,0.288 z"
         inkscape:connector-curvature="0" />
    </g>
    <g
       transform="translate(36.0581,-80.79684)"
       id="g32"
       style="fill:#000000">
      <path
         id="path34"
         d="m 31.968,625.978 c -0.216,0.072 -0.792,-2.52 -0.288,-2.232 l 0.288,2.232 z"
         inkscape:connector-curvature="0" />
    </g>
    <g
       transform="translate(36.0581,-80.79684)"
       id="g36"
       style="fill:#000000">
      <path
         id="path38"
         d="m 24.624,624.322 c 2.52,-7.776 13.392,-9.216 14.544,-18.504 -1.368,-1.08 -1.872,-3.24 -2.232,-4.824 -0.36,-1.656 -2.232,-1.944 -2.664,-3.384 0.288,-0.216 1.728,1.296 2.52,1.944 0.144,0 0.288,0.864 0.576,0.936 l 0.36,-0.936 c 0.216,0 0.504,0.288 0.36,0.576 l -0.72,0.792 c 0.144,4.32 3.816,5.904 7.128,8.496 l 2.016,1.296 c 0.72,1.296 -5.04,-2.808 -6.984,-4.536 -0.936,8.856 -12.312,12.168 -14.616,18.432 l -0.288,-0.288 z"
         inkscape:connector-curvature="0" />
    </g>
    <g
       transform="translate(36.0581,-80.79684)"
       id="g40"
       style="fill:#000000">
      <path
         id="path42"
         d="m 33.624,622.666 c -0.144,-0.288 0,-0.504 -0.072,-0.936 0.072,0.288 0.504,0.792 0.072,0.936 z"
         inkscape:connector-curvature="0" />
    </g>
    <g
       transform="translate(36.0581,-80.79684)"
       id="g44"
       style="fill:#000000">
      <path
         id="path46"
         d="m 40.752,617.698 c -0.36,-0.288 -0.648,-0.648 -1.152,-1.152 0.504,0.216 0.792,0.576 1.152,1.152 z"
         inkscape:connector-curvature="0" />
    </g>
    <g
       transform="translate(36.0581,-80.79684)"
       id="g48"
       style="fill:#000000">
      <path
         id="path50"
         d="m 33.912,616.258 c 0.216,-0.072 1.44,-1.296 2.16,-2.016 0.144,-0.648 -3.096,2.592 -2.16,2.016 z"
         inkscape:connector-curvature="0" />
    </g>
    <g
       transform="translate(36.0581,-80.79684)"
       id="g52"
       style="fill:#000000">
      <path
         id="path54"
         d="m 38.592,615.898 c -0.36,-0.072 -0.432,-0.432 -0.864,-0.576 l 0,-0.288 0.36,-0.144 c 0.36,0.144 0.432,0.36 0.72,0.792 l -0.216,0.216 z"
         inkscape:connector-curvature="0" />
    </g>
    <g
       transform="translate(36.0581,-80.79684)"
       id="g56"
       style="fill:#000000">
      <path
         id="path58"
         d="m 43.2,615.466 c -0.576,-0.504 -1.08,-1.152 -2.088,-1.512 l 0,-0.648 c 0.144,0 0.36,0.36 0.648,0.144 l 0,-0.576 2.016,1.512 -0.288,0.36 -1.584,-0.936 -0.432,-0.072 1.944,1.512 -0.216,0.216 z"
         inkscape:connector-curvature="0" />
    </g>
    <g
       transform="translate(36.0581,-80.79684)"
       id="g60"
       style="fill:#000000">
      <path
         id="path62"
         d="m 39.312,615.034 c -0.144,-0.072 -0.432,-0.144 -0.72,-0.36 l 0,-0.432 c 0.36,-0.216 0.432,-0.504 0.792,-0.936 0.288,0.216 0.504,0.432 0.72,0.864 l -0.072,0.144 c -0.288,0 -0.504,-0.432 -0.864,-0.288 -0.216,0.288 0.144,0.576 0.144,0.936 l 0,0.072 z"
         inkscape:connector-curvature="0" />
    </g>
    <g
       transform="translate(36.0581,-80.79684)"
       id="g64"
       style="fill:#000000">
      <path
         id="path66"
         d="m 44.28,614.242 -2.016,-1.368 c 0,-0.216 0,-0.648 -0.216,-1.008 l 2.304,1.584 c 0.072,0.144 0.072,0.432 0,0.72 l -0.072,0.072 z"
         inkscape:connector-curvature="0" />
    </g>
    <g
       transform="translate(36.0581,-80.79684)"
       id="g68"
       style="fill:#000000">
      <path
         id="path70"
         d="m 36.72,614.17 c -0.216,-0.648 0.648,-0.72 0.72,-1.368 l 0.432,0.072 0.216,-0.144 c -0.288,-0.288 0.072,-0.72 0.432,-0.504 0,-0.432 0.144,-0.432 0.432,-0.792 l -0.072,-0.648 0.504,0.216 c 0.144,-0.432 -0.36,-0.432 0.216,-0.936 0,-0.072 -0.072,-0.216 -0.288,-0.504 0.072,-0.072 0.432,0.144 0.576,-0.144 l -0.216,-0.216 c 0,-0.288 0.288,-0.072 0.576,-0.144 0,-0.144 -0.648,-0.864 0.072,-0.576 -0.072,-0.288 0,-0.576 -0.072,-0.864 0.144,0.216 0.36,0.216 0.504,0.576 0.144,0.432 -0.36,0.648 -0.144,1.224 -0.72,-0.216 0,0.216 -0.36,0.504 l -0.36,0 c 0.072,0.432 -0.216,0.72 0,1.224 0,0.504 -0.36,-0.144 -0.648,0.216 0,1.368 -1.584,1.44 -2.448,2.808 l -0.072,0 z"
         inkscape:connector-curvature="0" />
    </g>
    <g
       transform="translate(36.0581,-80.79684)"
       id="g72"
       style="fill:#000000">
      <path
         id="path74"
         d="m 40.464,613.666 -0.36,-0.072 c -0.072,0 -0.144,-0.288 -0.36,-0.504 l 0.144,-0.216 c 0.36,0.072 0.576,0.288 0.864,0.72 l -0.288,0.072 z"
         inkscape:connector-curvature="0" />
    </g>
    <g
       transform="translate(36.0581,-80.79684)"
       id="g76"
       style="fill:#000000">
      <path
         id="path78"
         d="m 44.64,613.306 -2.016,-1.296 0,-0.648 0.432,0.144 c 0.288,-0.432 0.936,-0.216 1.08,-0.936 l 2.16,1.296 0,0.288 c -0.504,0.216 -0.864,1.008 -1.584,1.08 l -0.072,0.072 z"
         inkscape:connector-curvature="0" />
    </g>
    <g
       transform="translate(36.0581,-80.79684)"
       id="g80"
       style="fill:#000000">
      <path
         id="path82"
         d="m 41.256,613.09 c -0.36,-0.144 -0.648,-0.36 -1.008,-0.648 l 0,-0.288 0.432,-0.36 c 0.432,0.288 0.504,-0.36 0.36,-0.648 l 0.504,0 -0.072,-0.432 c 0.288,0 0.576,0.576 0.792,0.792 -0.216,0.216 -0.792,-0.504 -1.008,0 0.216,0.288 0.36,0.504 0.648,0.864 -0.288,0.288 -0.504,-0.36 -0.864,-0.144 -0.144,0.432 0.432,0.432 0.216,0.864 z"
         inkscape:connector-curvature="0" />
    </g>
    <g
       transform="translate(36.0581,-80.79684)"
       id="g84"
       style="fill:#000000">
      <path
         id="path86"
         d="m 45.576,612.154 c 0.432,-0.144 -1.584,-1.224 -1.44,-0.792 l 1.44,0.792 z"
         inkscape:connector-curvature="0" />
    </g>
    <g
       transform="translate(36.0581,-80.79684)"
       id="g88"
       style="fill:#000000">
      <path
         id="path90"
         d="m 48.888,610.642 c -1.368,-0.216 1.008,-0.576 1.296,-0.216 0.216,0.216 -0.72,0.144 -1.224,0.216 l -0.072,0 z"
         inkscape:connector-curvature="0" />
    </g>
    <g
       transform="translate(36.0581,-80.79684)"
       id="g92"
       style="fill:#000000">
      <path
         id="path94"
         d="m 47.664,610.066 c -0.792,0.432 0.576,-0.936 0.936,-0.504 l 0.144,0.144 c -0.216,0.288 -0.648,0.144 -1.008,0.36 l -0.072,0 z"
         inkscape:connector-curvature="0" />
    </g>
    <g
       transform="translate(36.0581,-80.79684)"
       id="g96"
       style="fill:#000000">
      <path
         id="path98"
         d="m 46.656,609.778 c 0.144,-0.144 0.36,-0.504 0.936,-0.504 0.504,0.36 -0.288,0.288 -0.504,0.432 l -0.432,0.072 z"
         inkscape:connector-curvature="0" />
    </g>
    <g
       transform="translate(36.0581,-80.79684)"
       id="g100"
       style="fill:#000000">
      <path
         id="path102"
         d="m 51.84,603.658 -4.392,-4.032 c -0.648,-1.512 5.112,3.528 4.536,3.96 l -0.144,0.072 z"
         inkscape:connector-curvature="0" />
    </g>
    <g
       transform="translate(36.0581,-80.79684)"
       id="g104"
       style="fill:#000000">
      <path
         id="path106"
         d="m 54.576,601.858 c -0.432,0.072 -0.432,-0.576 -0.72,-0.864 l 0,-0.504 c 0.072,0.288 1.08,1.512 0.72,1.368 z"
         inkscape:connector-curvature="0" />
    </g>
    <g
       transform="translate(36.0581,-80.79684)"
       id="g108"
       style="fill:#000000">
      <path
         id="path110"
         d="m 52.056,600.634 c -0.36,0 -0.792,-0.144 -1.008,-0.576 l 0.216,-0.216 c 0.36,0.216 0.504,0.288 0.792,0.72 l 0,0.072 z"
         inkscape:connector-curvature="0" />
    </g>
    <g
       transform="translate(36.0581,-80.79684)"
       id="g112"
       style="fill:#000000">
      <path
         id="path114"
         d="m 52.488,600.058 c -0.216,-0.072 -0.72,-0.216 -1.08,-0.432 l 0.36,-0.288 c 0.504,0 0.504,0.36 0.792,0.648 l -0.072,0.072 z"
         inkscape:connector-curvature="0" />
    </g>
    <g
       transform="translate(36.0581,-80.79684)"
       id="g116"
       style="fill:#000000">
      <path
         id="path118"
         d="m 55.368,599.77 c -0.288,-0.072 -0.36,-0.216 -0.72,-0.432 l 0.288,-0.072 c 0.144,0 0.144,0.432 0.432,0.504 z"
         inkscape:connector-curvature="0" />
    </g>
    <g
       transform="translate(36.0581,-80.79684)"
       id="g120"
       style="fill:#000000">
      <path
         id="path122"
         d="m 53.208,599.626 -1.584,-0.864 c 0.72,-0.144 1.152,0.432 1.656,0.864 l -0.072,0 z"
         inkscape:connector-curvature="0" />
    </g>
    <g
       transform="translate(36.0581,-80.79684)"
       id="g124"
       style="fill:#000000">
      <path
         id="path126"
         d="m 53.64,598.978 c -0.432,-0.216 -0.864,-0.432 -1.368,-0.576 0.216,0.144 0.432,-0.072 0.432,-0.36 0.36,0.216 0.576,0.504 0.936,0.864 l 0,0.072 z"
         inkscape:connector-curvature="0" />
    </g>
    <g
       transform="translate(36.0581,-80.79684)"
       id="g128"
       style="fill:#000000">
      <path
         id="path130"
         d="m 46.512,598.834 c 1.224,-0.72 -6.624,-2.952 -5.256,-1.728 1.8,0.288 3.6,0.648 5.256,1.728 z"
         inkscape:connector-curvature="0" />
    </g>
    <g
       transform="translate(36.0581,-80.79684)"
       id="g132"
       style="fill:#000000">
      <path
         id="path134"
         d="m 53.928,598.258 c -0.432,-0.072 -1.008,-0.288 -1.152,-0.864 0.504,0 0.864,0.504 1.224,0.864 l -0.072,0 z"
         inkscape:connector-curvature="0" />
    </g>
    <g
       transform="translate(36.0581,-80.79684)"
       id="g136"
       style="fill:#000000">
      <path
         id="path138"
         d="m 34.128,597.466 c -1.44,-1.728 -2.88,-2.16 -3.96,-1.08 0.216,-1.08 1.872,-2.304 3.096,-2.16 1.368,0.216 1.368,0.648 2.016,0.648 1.944,0.072 4.104,-0.216 5.472,1.872 -0.432,0 -0.432,-0.36 -0.864,-0.576 l -0.288,0.36 c -0.72,0 -0.432,-0.144 0.072,-0.432 -1.224,-0.576 -3.096,-1.008 -4.392,-0.864 l 0,0.864 -0.216,0.576 c -0.288,0.144 -0.288,0.504 -0.792,0.792 l -0.144,0 z"
         inkscape:connector-curvature="0" />
    </g>
    <g
       transform="translate(36.0581,-80.79684)"
       id="g140"
       style="fill:#000000">
      <path
         id="path142"
         d="m 57.744,597.394 c -0.36,-0.144 -0.864,-0.504 -1.224,-0.648 l -0.36,-0.432 c 0.216,0.072 1.08,0.288 1.224,0.576 l 0.36,0.504 z"
         inkscape:connector-curvature="0" />
    </g>
    <g
       transform="translate(36.0581,-80.79684)"
       id="g144"
       style="fill:#000000">
      <path
         id="path146"
         d="m 37.944,596.818 c 0,-0.144 -0.216,-0.36 -0.144,-0.648 l 0.144,-0.072 0.216,0.072 c 0.144,0.216 0,0.36 -0.072,0.648 l -0.144,0 z"
         inkscape:connector-curvature="0" />
    </g>
    <g
       transform="translate(36.0581,-80.79684)"
       id="g148"
       style="fill:#000000">
      <path
         id="path150"
         d="m 37.08,596.746 c -0.216,-0.072 -0.576,-0.216 -0.72,-0.432 l 0,-0.288 c 0.288,-0.216 0.504,-0.216 0.864,-0.216 0.288,0.072 0.288,0.504 0.288,0.864 l -0.432,0.072 z"
         inkscape:connector-curvature="0" />
    </g>
    <g
       transform="translate(36.0581,-80.79684)"
       id="g152"
       style="fill:#000000">
      <path
         id="path154"
         d="m 55.44,596.818 c -0.504,-0.36 -1.152,-0.432 -1.656,-0.72 0.504,-0.072 1.08,0.216 1.656,0.288 l 0.144,-0.216 c -0.216,-0.36 -0.432,-0.432 -0.864,-0.72 l -0.432,0.216 c -0.144,-0.504 -0.36,-0.36 -0.72,-0.864 0.72,0.216 1.584,0.936 2.592,0.792 -0.144,-0.72 -0.72,-0.504 -1.08,-1.08 0.576,0.144 1.008,0.288 1.368,1.08 -0.072,0.432 -0.288,0 -0.648,0.288 -0.144,0.144 0.288,0.576 -0.216,0.72 l -0.144,0.216 z"
         inkscape:connector-curvature="0" />
    </g>
    <g
       transform="translate(36.0581,-80.79684)"
       id="g156"
       style="fill:#000000">
      <path
         id="path158"
         d="m 53.568,595.738 -0.216,-0.072 c 0,-0.648 0.648,0.072 0.216,0.072 z"
         inkscape:connector-curvature="0" />
    </g>
    <g
       transform="translate(36.0581,-80.79684)"
       id="g160"
       style="fill:#000000">
      <path
         id="path162"
         d="m 58.68,596.026 c -0.288,-0.144 -1.296,-0.504 -1.584,-0.864 0.288,0 1.368,0.504 1.584,0.864 z"
         inkscape:connector-curvature="0" />
    </g>
    <g
       transform="translate(36.0581,-80.79684)"
       id="g164"
       style="fill:#000000">
      <path
         id="path166"
         d="m 54.576,595.018 0,-0.432 c -0.288,-0.072 -0.288,-0.288 -0.576,-0.432 0.288,-0.144 0.576,0 0.936,-0.144 0,-0.216 -0.36,-0.216 -0.648,-0.432 0.288,-0.072 0.576,0 0.864,-0.072 0.144,-0.36 -0.288,-0.288 -0.432,-0.576 l 0.288,0 c 0.576,0.648 1.008,1.008 1.728,1.656 l -1.584,-0.72 0,0.288 c -0.144,0.216 -0.288,-0.216 -0.648,0.072 0.216,0.072 0.144,0.36 0.36,0.576 l -0.288,0.216 z"
         inkscape:connector-curvature="0" />
    </g>
    <g
       transform="translate(36.0581,-80.79684)"
       id="g168"
       style="fill:#000000">
      <path
         id="path170"
         d="m 59.04,595.09 c -0.144,-0.144 -1.152,0 -1.368,-0.72 0.216,-0.072 1.224,0.576 1.368,0.72 z"
         inkscape:connector-curvature="0" />
    </g>
    <g
       transform="translate(36.0581,-80.79684)"
       id="g172"
       style="fill:#000000">
      <path
         id="path174"
         d="m 56.88,594.01 c -0.144,-0.432 -0.432,-0.72 -1.008,-1.008 l -0.216,-0.576 c -0.072,-0.216 -0.504,-0.288 -0.72,-0.36 0.432,-0.216 0.864,0.288 1.08,0.792 0.36,0.144 0.792,0.36 1.224,0.288 l 0,-0.288 -1.44,-0.792 0.216,-0.216 c 0,-0.216 -0.288,-0.288 -0.432,-0.576 0.144,0.072 0.504,0 0.792,0.072 l 0.072,-0.288 c -0.072,-0.144 -0.432,-0.288 -0.72,-0.432 0.288,-0.288 0.648,0.072 1.008,-0.144 l 0,-0.216 c -0.216,-0.072 -0.504,-0.216 -0.648,-0.504 0.288,0 0.504,0.144 0.864,0 0.144,-0.288 -0.072,-0.504 -0.432,-0.576 0.072,-0.432 0.792,0.072 0.792,-0.432 -0.216,0 -0.144,-0.288 -0.504,-0.36 l 0.648,-0.144 0.144,-0.216 c 0,-0.288 -0.36,-0.144 -0.36,-0.504 0.216,0.144 0.576,-0.072 0.648,-0.216 l -0.288,-0.504 0.576,-0.072 0,-0.216 c -0.216,-0.144 -0.504,-0.216 -0.576,-0.36 l 0.432,0 c 0.288,-0.288 -0.072,-0.504 -0.36,-0.648 0.144,-0.288 0.36,-0.144 0.648,-0.216 l -0.36,-0.36 c 0.216,0.072 0.576,-0.36 0.216,-0.432 l 0.216,-0.072 c 0.216,0.216 0.144,0.576 0.216,0.936 l -0.432,0 0,0.288 c 0.504,0.288 1.224,0.216 1.656,-0.072 -0.072,-0.072 -0.36,-0.216 -0.576,-0.36 0,-0.288 0.504,0 0.576,-0.432 l -0.504,-0.288 c 0.144,-0.144 0.432,0 0.72,-0.072 0.432,0.36 0,0.36 -0.072,0.72 0.576,0.432 -0.288,0.72 0.144,1.368 l -0.504,0.216 0.072,0.432 c -0.288,0.144 -0.576,0.36 -0.936,0.288 0.144,0.072 0.216,0.36 0.36,0.648 l -0.576,0.072 c 0,0.288 0.504,0.288 0.504,0.648 0,0.144 -0.36,0.36 -0.648,0.432 l 0.288,0.504 -0.432,0.216 c 0,0.216 0.072,0.432 0.288,0.72 l -0.36,0.36 0.144,0.504 c -0.072,0.144 -0.432,0.072 -0.72,0.144 0.72,0.504 2.016,0.288 2.808,0.936 l -2.376,-0.504 -0.216,0.36 -0.576,-0.072 c -0.144,0.216 0.216,0.504 0.288,0.864 0.432,0.216 0.864,0.216 1.44,0.576 l -2.448,-0.648 c 0.216,0.072 0.288,0.432 0.432,0.72 l -0.072,0.072 z"
         inkscape:connector-curvature="0" />
    </g>
    <g
       transform="translate(36.0581,-80.79684)"
       id="g176"
       style="fill:#000000">
      <path
         id="path178"
         d="m 57.312,592.354 c -0.216,0 -0.576,-0.144 -1.08,-0.288 l -0.072,-0.432 c 0.432,-0.288 1.008,0.216 1.512,0.432 l -0.36,0.288 z"
         inkscape:connector-curvature="0" />
    </g>
    <g
       transform="translate(36.0581,-80.79684)"
       id="g180"
       style="fill:#000000">
      <path
         id="path182"
         d="m 53.064,591.778 c 0.288,0.864 4.68,-8.352 3.744,-7.992 -0.144,-0.144 -4.176,8.28 -3.744,7.992 z"
         inkscape:connector-curvature="0" />
    </g>
    <g
       transform="translate(36.0581,-80.79684)"
       id="g184"
       style="fill:#000000">
      <path
         id="path186"
         d="m 60.768,591.058 c 0.864,0.216 -1.8,-1.224 -1.656,-0.72 l 1.656,0.72 z"
         inkscape:connector-curvature="0" />
    </g>
    <g
       transform="translate(36.0581,-80.79684)"
       id="g188"
       style="fill:#000000">
      <path
         id="path190"
         d="m 57.96,590.698 c -0.432,0 -0.72,-0.36 -1.224,-0.648 0.504,-0.144 1.152,0 1.512,0.576 l -0.288,0.072 z"
         inkscape:connector-curvature="0" />
    </g>
    <g
       transform="translate(36.0581,-80.79684)"
       id="g192"
       style="fill:#000000">
      <path
         id="path194"
         d="m 61.632,590.41 c -0.504,-0.072 -2.232,-0.576 -1.656,-0.648 0.504,0.216 1.224,0.288 1.656,0.648 z"
         inkscape:connector-curvature="0" />
    </g>
    <g
       transform="translate(36.0581,-80.79684)"
       id="g196"
       style="fill:#000000">
      <path
         id="path198"
         d="m 57.672,589.762 c -0.144,-0.144 -0.504,-0.216 -0.72,-0.504 0.36,-0.144 1.008,0 1.296,0.504 l -0.576,0 z"
         inkscape:connector-curvature="0" />
    </g>
    <g
       transform="translate(36.0581,-80.79684)"
       id="g200"
       style="fill:#000000">
      <path
         id="path202"
         d="m 61.488,589.546 c -0.288,-0.072 -0.72,-0.216 -1.08,-0.432 0.36,0 0.792,0 1.08,0.432 z"
         inkscape:connector-curvature="0" />
    </g>
    <g
       transform="translate(36.0581,-80.79684)"
       id="g204"
       style="fill:#000000">
      <path
         id="path206"
         d="m 57.672,588.97 -0.216,-0.432 c 0.36,-0.144 1.08,0 1.224,0.36 -0.288,0.216 -0.648,0 -1.008,0.072 z"
         inkscape:connector-curvature="0" />
    </g>
    <g
       transform="translate(36.0581,-80.79684)"
       id="g208"
       style="fill:#000000">
      <path
         id="path210"
         d="m 61.704,588.682 c -0.432,-0.144 -0.936,-0.288 -1.512,-0.504 -0.72,-0.504 2.088,0.36 1.512,0.504 z"
         inkscape:connector-curvature="0" />
    </g>
    <g
       transform="translate(36.0581,-80.79684)"
       id="g212"
       style="fill:#000000">
      <path
         id="path214"
         d="m 58.032,588.034 -0.144,-0.144 0.072,-0.144 c 0.216,0 0.576,-0.072 0.72,0.144 l -0.648,0.144 z"
         inkscape:connector-curvature="0" />
    </g>
    <g
       transform="translate(36.0581,-80.79684)"
       id="g216"
       style="fill:#000000">
      <path
         id="path218"
         d="m 62.568,587.89 c 0.36,0.36 -1.296,-0.36 -2.016,-0.576 -0.648,-0.72 1.368,0.432 2.088,0.504 l -0.072,0.072 z"
         inkscape:connector-curvature="0" />
    </g>
    <g
       transform="translate(36.0581,-80.79684)"
       id="g220"
       style="fill:#000000">
      <path
         id="path222"
         d="m 58.392,587.314 -0.144,-0.144 0.072,-0.144 c 0.288,-0.072 0.648,-0.072 1.008,0.072 -0.216,0.216 -0.432,0 -0.72,0.072 l -0.216,0.144 z"
         inkscape:connector-curvature="0" />
    </g>
    <g
       transform="translate(36.0581,-80.79684)"
       id="g224"
       style="fill:#000000">
      <path
         id="path226"
         d="m 58.608,586.522 -0.36,-0.216 c 0.36,-0.072 1.08,-0.288 1.44,0.216 -0.288,0 -0.648,0 -1.08,0 z"
         inkscape:connector-curvature="0" />
    </g>
    <g
       transform="translate(36.0581,-80.79684)"
       id="g228"
       style="fill:#000000">
      <path
         id="path230"
         d="m 59.256,584.074 c 0.144,-0.072 0.504,-0.432 0.864,-0.576 l 0.072,-0.432 -0.432,0 c 0.288,-0.072 0.432,-0.36 0.792,-0.504 0,-0.504 -0.432,-0.216 -0.792,-0.288 0.072,-0.36 0.648,-0.36 1.008,-0.648 -0.072,-0.36 -0.648,0 -1.008,-0.144 0.072,-0.504 0.936,-0.288 1.08,-0.792 l -0.144,-0.216 c -0.288,0 -0.504,0 -0.864,0.072 0.144,-0.288 0.864,-0.288 1.008,-0.72 -0.288,0 -0.648,0.072 -0.792,-0.144 0,-0.144 0.288,-0.216 0.504,-0.36 l -0.36,-0.288 c 0,-0.36 0.576,-0.72 0.72,-1.008 l -0.792,0.144 c 0.216,-0.36 0.576,-0.576 1.008,-0.936 0.072,0.144 0.432,-0.216 0.504,0.144 -0.36,0.288 -0.072,1.008 -0.72,1.368 l 0.072,0.432 c -0.072,0.144 -0.144,0.144 -0.216,0.432 0.288,0.144 0.432,-0.144 0.576,0.216 0.936,-0.288 1.44,-1.224 2.376,-1.656 0.432,-0.36 1.728,-1.8 1.44,-1.152 l -4.176,3.96 c 0,0.576 0,0.144 0.36,0.36 l 3.6,-2.736 c 1.224,-0.072 -3.96,2.376 -4.392,4.752 -0.216,0.144 -0.864,0.72 -1.296,0.72 z"
         inkscape:connector-curvature="0" />
    </g>
    <g
       transform="translate(36.0581,-80.79684)"
       id="g232"
       style="fill:#000000">
      <path
         id="path234"
         d="m 60.84,584.074 c -0.072,0 3.888,-0.792 3.888,-0.792 0.216,-0.432 -4.824,0.576 -3.888,0.792 z"
         inkscape:connector-curvature="0" />
    </g>
    <g
       transform="translate(36.0581,-80.79684)"
       id="g236"
       style="fill:#000000">
      <path
         id="path238"
         d="m 57.168,582.418 c 0,1.44 1.44,-2.88 1.296,-3.24 0.072,-1.368 -1.296,2.88 -1.296,3.24 z"
         inkscape:connector-curvature="0" />
    </g>
    <g
       transform="translate(36.0581,-80.79684)"
       id="g240"
       style="fill:#000000">
      <path
         id="path242"
         d="m 62.712,582.058 2.52,-1.872 c -0.432,1.008 -1.44,1.296 -2.448,1.872 l -0.072,0 z"
         inkscape:connector-curvature="0" />
    </g>
    <g
       transform="translate(36.0581,-80.79684)"
       id="g244"
       style="fill:#000000">
      <path
         id="path246"
         d="m 61.56,578.962 c 0.144,0.288 4.032,-3.24 4.392,-3.6 -0.144,-0.36 -4.536,3.528 -4.392,3.6 z"
         inkscape:connector-curvature="0" />
    </g>
    <g
       transform="translate(36.0581,-80.79684)"
       id="g248"
       style="fill:#000000">
      <path
         id="path250"
         d="m 58.752,578.53 c -1.656,0.576 5.4,-6.192 8.28,-8.136 l 0.36,0.144 -8.64,7.992 z"
         inkscape:connector-curvature="0" />
    </g>
    <g
       transform="translate(36.0581,-80.79684)"
       id="g252"
       style="fill:#000000">
      <path
         id="path254"
         d="m 64.512,573.994 c -0.936,0.432 1.008,-1.08 1.728,-1.152 -0.288,0.432 -1.08,0.72 -1.656,1.152 l -0.072,0 z"
         inkscape:connector-curvature="0" />
    </g>
    <g
       transform="matrix(0.987802,0.155717,-0.155717,0.987802,89.03707,-6.592313)"
       id="g3060">
      <g
         style="fill:#000000"
         id="g256"
         transform="translate(36.0581,-80.79684)">
        <path
           d="m 17.352,660.394 0.936,0.72 -1.296,1.944 c -0.144,0.216 -0.288,0.36 -0.504,0.504 -0.144,0.144 -0.36,0.216 -0.576,0.288 -0.216,0 -0.36,0 -0.576,0 -0.216,-0.072 -0.504,-0.216 -0.72,-0.432 -0.216,-0.072 -0.36,-0.216 -0.504,-0.36 -0.216,-0.216 -0.288,-0.36 -0.36,-0.504 -0.072,-0.144 -0.144,-0.36 -0.144,-0.504 -0.072,-0.216 0,-0.432 0,-0.576 0.072,-0.288 0.216,-0.432 0.288,-0.648 l 1.368,-1.944 0.936,0.72 -1.296,2.016 c -0.144,0.144 -0.216,0.36 -0.144,0.504 0,0.216 0.072,0.36 0.288,0.504 0.144,0.072 0.288,0.144 0.504,0.144 0.144,-0.072 0.288,-0.144 0.432,-0.36 l 1.368,-2.016 z"
           id="path258"
           inkscape:connector-curvature="0" />
      </g>
      <g
         style="fill:#000000"
         id="g260"
         transform="translate(36.0581,-80.79684)">
        <path
           d="m 18.864,661.474 0.936,0.576 0.072,2.736 1.152,-1.872 1.008,0.648 -2.16,3.384 -0.936,-0.576 -0.072,-2.736 -1.152,1.872 -0.936,-0.648 2.088,-3.384 z"
           id="path262"
           inkscape:connector-curvature="0" />
      </g>
      <g
         style="fill:#000000"
         id="g264"
         transform="translate(36.0581,-80.79684)">
        <path
           d="m 22.536,663.634 1.08,0.576 -1.8,3.6 -1.08,-0.576 1.8,-3.6 z"
           id="path266"
           inkscape:connector-curvature="0" />
      </g>
      <g
         style="fill:#000000"
         id="g268"
         transform="translate(36.0581,-80.79684)">
        <path
           d="m 23.832,664.354 1.152,0.576 -0.36,3.024 1.944,-2.304 1.152,0.576 -2.952,3.024 -1.224,-0.576 0.288,-4.32 z"
           id="path270"
           inkscape:connector-curvature="0" />
      </g>
      <g
         style="fill:#000000"
         id="g272"
         transform="translate(36.0581,-80.79684)">
        <path
           d="m 28.008,666.298 3.024,1.152 -0.288,0.792 -1.872,-0.72 -0.216,0.648 1.8,0.648 -0.288,0.792 -1.8,-0.648 -0.216,0.72 1.944,0.72 -0.288,0.864 -3.096,-1.08 1.296,-3.888 z"
           id="path274"
           inkscape:connector-curvature="0" />
      </g>
      <g
         style="fill:#000000"
         id="g276"
         transform="translate(36.0581,-80.79684)">
        <path
           d="m 32.832,667.954 0.648,0.144 c 0.36,0.144 0.576,0.216 0.792,0.36 0.144,0.144 0.288,0.288 0.36,0.504 0.072,0.216 0.072,0.432 0,0.72 -0.072,0.216 -0.144,0.36 -0.288,0.504 -0.144,0.144 -0.288,0.216 -0.504,0.288 -0.072,0 -0.216,0 -0.432,0 0.144,0.072 0.216,0.144 0.288,0.216 0,0.072 0.072,0.144 0.072,0.288 0.072,0.144 0.144,0.216 0.144,0.288 l 0.216,1.296 -1.296,-0.36 0,-2.52 c 0.072,0 0.144,0 0.216,0 0.072,0 0.144,0 0.216,-0.072 0.072,-0.072 0.144,-0.144 0.144,-0.216 0.072,-0.144 0.072,-0.216 0,-0.288 -0.072,-0.144 -0.216,-0.216 -0.432,-0.288 l -0.144,0 0,-0.864 z"
           id="path278"
           inkscape:connector-curvature="0" />
      </g>
      <g
         style="fill:#000000"
         id="g280"
         transform="translate(36.0581,-80.79684)">
        <path
           d="m 30.456,671.482 1.08,-3.96 1.296,0.432 0,0.864 -0.36,-0.144 -0.216,0.792 0.504,0.144 c 0,0 0.072,0 0.072,0.072 l 0,2.52 0,0 -0.288,-1.44 c -0.072,-0.144 -0.072,-0.288 -0.144,-0.36 -0.072,-0.072 -0.144,-0.144 -0.216,-0.144 l -0.144,0 -0.432,1.584 -1.152,-0.36 z"
           id="path282"
           inkscape:connector-curvature="0" />
      </g>
      <g
         style="fill:#000000"
         id="g284"
         transform="translate(36.0581,-80.79684)">
        <path
           d="m 34.56,671.266 1.152,0.144 c 0,0.216 0,0.36 0.072,0.432 0.072,0.216 0.216,0.36 0.432,0.36 0.216,0.072 0.36,0.072 0.432,0 0.144,-0.072 0.216,-0.144 0.216,-0.288 0,-0.072 0,-0.216 -0.072,-0.288 -0.072,-0.144 -0.288,-0.216 -0.576,-0.36 -0.504,-0.216 -0.864,-0.504 -1.008,-0.72 -0.216,-0.216 -0.288,-0.504 -0.216,-0.864 0.072,-0.144 0.144,-0.36 0.288,-0.504 0.144,-0.144 0.36,-0.288 0.576,-0.36 0.288,-0.072 0.576,0 1.008,0.072 0.504,0.072 0.864,0.216 1.08,0.504 0.216,0.216 0.288,0.576 0.288,1.008 l -1.152,-0.144 c 0,-0.216 -0.072,-0.36 -0.144,-0.432 -0.072,-0.144 -0.144,-0.216 -0.36,-0.216 -0.144,-0.072 -0.216,-0.072 -0.288,0 -0.072,0.072 -0.144,0.144 -0.144,0.216 -0.072,0.072 0,0.144 0,0.216 0.072,0 0.216,0.144 0.432,0.216 0.432,0.216 0.792,0.36 1.008,0.576 0.216,0.144 0.36,0.36 0.432,0.504 0.072,0.216 0.072,0.432 0,0.648 0,0.288 -0.144,0.504 -0.288,0.648 -0.216,0.216 -0.432,0.36 -0.72,0.36 -0.216,0.072 -0.576,0.072 -0.936,0 -0.648,-0.144 -1.08,-0.36 -1.296,-0.648 -0.144,-0.288 -0.288,-0.648 -0.216,-1.08 z"
           id="path286"
           inkscape:connector-curvature="0" />
      </g>
      <g
         style="fill:#000000"
         id="g288"
         transform="translate(36.0581,-80.79684)">
        <path
           d="m 38.952,669.322 1.152,0.216 -0.432,4.032 -1.224,-0.144 0.504,-4.104 z"
           id="path290"
           inkscape:connector-curvature="0" />
      </g>
      <g
         style="fill:#000000"
         id="g292"
         transform="translate(36.0581,-80.79684)">
        <path
           d="m 42.408,669.754 0.216,0 c 0.36,0.072 0.648,0.144 0.864,0.216 0.216,0.144 0.36,0.288 0.504,0.504 0.072,0.216 0.216,0.432 0.216,0.648 0.072,0.288 0.072,0.576 0.072,0.792 -0.072,0.432 -0.144,0.792 -0.288,1.008 -0.072,0.216 -0.216,0.432 -0.432,0.576 -0.144,0.144 -0.36,0.216 -0.576,0.288 -0.216,0 -0.36,0.072 -0.576,0.072 l 0,-1.008 c 0.072,0 0.144,0 0.216,0 0.072,-0.072 0.216,-0.144 0.288,-0.288 0.072,-0.144 0.072,-0.36 0.144,-0.72 0,-0.432 0,-0.72 -0.144,-0.864 -0.072,-0.144 -0.288,-0.288 -0.504,-0.288 l 0,-0.936 z"
           id="path294"
           inkscape:connector-curvature="0" />
      </g>
      <g
         style="fill:#000000"
         id="g296"
         transform="translate(36.0581,-80.79684)">
        <path
           d="m 40.824,669.61 1.584,0.144 0,0.936 c -0.072,0 -0.072,0 -0.144,0 l -0.288,-0.072 -0.216,2.232 0.288,0 c 0.144,0.072 0.288,0.072 0.36,0 l 0,1.008 c -0.072,0 -0.072,0 -0.144,0 l -1.8,-0.216 0.36,-4.032 z"
           id="path298"
           inkscape:connector-curvature="0" />
      </g>
      <g
         style="fill:#000000"
         id="g300"
         transform="translate(36.0581,-80.79684)">
        <path
           d="m 46.944,673.354 -0.648,0 0,-0.864 0.432,0 -0.36,-1.512 -0.072,0.216 0,-1.224 0.792,0 1.224,4.176 -1.224,-0.072 -0.144,-0.72 z"
           id="path302"
           inkscape:connector-curvature="0" />
      </g>
      <g
         style="fill:#000000"
         id="g304"
         transform="translate(36.0581,-80.79684)">
        <path
           d="m 46.296,673.354 -0.72,-0.072 -0.216,0.72 -1.296,-0.072 1.728,-4.032 0.504,0.072 0,1.224 -0.432,1.224 0.432,0.072 0,0.864 z"
           id="path306"
           inkscape:connector-curvature="0" />
      </g>
      <g
         style="fill:#000000"
         id="g308"
         transform="translate(36.0581,-80.79684)">
        <path
           d="m 50.328,669.898 c 0.288,-0.072 0.504,0 0.72,0.072 0.216,0.072 0.432,0.216 0.576,0.36 0.144,0.144 0.288,0.36 0.36,0.648 0.072,0.216 0.144,0.504 0.144,0.72 0.072,0.432 0.072,0.792 0,1.08 -0.072,0.216 -0.216,0.432 -0.36,0.576 -0.144,0.216 -0.36,0.36 -0.504,0.432 -0.288,0.072 -0.504,0.144 -0.72,0.144 l -0.216,0 0,-0.936 c 0.144,0 0.288,-0.072 0.36,-0.072 0.144,-0.072 0.216,-0.216 0.216,-0.36 0.072,-0.144 0.072,-0.36 0.072,-0.72 -0.072,-0.432 -0.144,-0.72 -0.288,-0.864 -0.072,-0.072 -0.216,-0.144 -0.36,-0.144 l 0,-0.936 z"
           id="path310"
           inkscape:connector-curvature="0" />
      </g>
      <g
         style="fill:#000000"
         id="g312"
         transform="translate(36.0581,-80.79684)">
        <path
           d="m 48.384,670.042 1.8,-0.144 c 0.072,0 0.072,0 0.144,0 l 0,0.936 c -0.072,0 -0.216,0 -0.36,0 l -0.288,0 0.216,2.232 0.288,0 c 0.072,0 0.072,-0.072 0.144,-0.072 l 0,0.936 -1.584,0.144 -0.36,-4.032 z"
           id="path314"
           inkscape:connector-curvature="0" />
      </g>
    </g>
    <g
       transform="translate(-0.667742,0.333871)"
       id="g3092">
      <g
         style="fill:#000000"
         id="g316"
         transform="translate(36.0581,-80.79684)">
        <path
           d="m 54,669.538 1.08,-0.216 1.872,1.872 -0.432,-2.232 1.08,-0.216 0.864,3.96 -1.152,0.288 -1.872,-1.872 0.432,2.16 -1.08,0.288 L 54,669.538 z"
           id="path318"
           inkscape:connector-curvature="0" />
      </g>
      <g
         style="fill:#000000"
         id="g320"
         transform="translate(36.0581,-80.79684)">
        <path
           d="m 61.344,671.338 -0.864,0.216 0,-0.936 0.432,-0.072 -0.432,-0.792 0,-1.728 0.144,0 2.304,3.6 -1.224,0.36 -0.36,-0.648 z"
           id="path322"
           inkscape:connector-curvature="0" />
      </g>
      <g
         style="fill:#000000"
         id="g324"
         transform="translate(36.0581,-80.79684)">
        <path
           d="m 60.48,671.554 -0.432,0.144 -0.072,0.648 -1.224,0.288 0.576,-4.32 1.152,-0.288 0,1.728 -0.288,-0.504 -0.072,1.512 0.36,-0.144 0,0.936 z"
           id="path326"
           inkscape:connector-curvature="0" />
      </g>
      <g
         style="fill:#000000"
         id="g328"
         transform="translate(36.0581,-80.79684)">
        <path
           d="m 65.088,669.034 1.08,-0.072 c 0.072,0.36 0,0.648 -0.072,0.864 -0.072,0.288 -0.144,0.504 -0.36,0.648 -0.144,0.216 -0.432,0.36 -0.72,0.432 -0.432,0.216 -0.792,0.216 -1.08,0.216 -0.288,0 -0.576,-0.144 -0.864,-0.36 -0.288,-0.288 -0.504,-0.648 -0.72,-1.08 -0.216,-0.648 -0.216,-1.224 0,-1.656 0.216,-0.432 0.576,-0.792 1.224,-1.008 0.432,-0.216 0.864,-0.216 1.152,-0.144 0.36,0.072 0.648,0.288 0.936,0.648 l -0.936,0.648 c -0.072,-0.144 -0.144,-0.216 -0.216,-0.216 -0.072,-0.072 -0.216,-0.144 -0.288,-0.144 -0.144,0 -0.216,0 -0.36,0.072 -0.216,0.072 -0.36,0.288 -0.432,0.504 -0.072,0.216 0,0.504 0.072,0.864 0.144,0.432 0.36,0.648 0.504,0.792 0.144,0.072 0.36,0.144 0.576,0 0.216,-0.072 0.36,-0.144 0.432,-0.36 0.072,-0.144 0.072,-0.36 0.072,-0.648 z"
           id="path330"
           inkscape:connector-curvature="0" />
      </g>
      <g
         style="fill:#000000"
         id="g332"
         transform="translate(36.0581,-80.79684)">
        <path
           d="m 65.736,666.226 1.08,-0.504 1.512,3.744 -1.08,0.504 -1.512,-3.744 z"
           id="path334"
           inkscape:connector-curvature="0" />
      </g>
      <g
         style="fill:#000000"
         id="g336"
         transform="translate(36.0581,-80.79684)">
        <path
           d="m 69.912,664.354 c 0.216,-0.072 0.432,0 0.648,0 0.504,0.216 0.864,0.576 1.152,1.152 0.216,0.36 0.288,0.792 0.288,1.152 0,0.288 -0.072,0.648 -0.216,0.936 -0.216,0.288 -0.504,0.504 -0.864,0.72 -0.36,0.216 -0.648,0.36 -1.008,0.36 l 0,-1.08 c 0.216,0.072 0.36,0 0.576,-0.072 0.216,-0.144 0.36,-0.288 0.36,-0.504 0.072,-0.216 0,-0.576 -0.216,-0.936 -0.144,-0.36 -0.36,-0.576 -0.576,-0.648 0,0 -0.072,-0.072 -0.144,-0.072 l 0,-1.008 z"
           id="path338"
           inkscape:connector-curvature="0" />
      </g>
      <g
         style="fill:#000000"
         id="g340"
         transform="translate(36.0581,-80.79684)">
        <path
           d="m 68.184,667.522 c -0.36,-0.648 -0.432,-1.152 -0.288,-1.656 0.144,-0.504 0.504,-0.936 1.08,-1.224 0.36,-0.216 0.648,-0.288 0.936,-0.288 l 0,1.008 c -0.144,0 -0.288,0 -0.504,0.144 -0.216,0.072 -0.36,0.288 -0.36,0.504 -0.072,0.216 0,0.504 0.144,0.864 0.216,0.36 0.432,0.648 0.648,0.72 0,0 0.072,0 0.072,0 l 0,1.08 c 0,0 0,0 -0.072,0 -0.288,0 -0.648,-0.072 -0.936,-0.288 -0.288,-0.144 -0.504,-0.504 -0.72,-0.864 z"
           id="path342"
           inkscape:connector-curvature="0" />
      </g>
      <g
         style="fill:#000000"
         id="g344"
         transform="translate(36.0581,-80.79684)">
        <path
           d="m 71.208,663.562 0.936,-0.648 2.376,1.152 -1.08,-1.944 0.936,-0.576 2.016,3.456 -0.936,0.648 -2.376,-1.152 1.08,1.944 -0.936,0.576 -2.016,-3.456 z"
           id="path346"
           inkscape:connector-curvature="0" />
      </g>
      <g
         style="fill:#000000"
         id="g348"
         transform="translate(36.0581,-80.79684)">
        <path
           d="m 78.624,662.554 -1.152,0.864 0.216,0.648 -0.36,0.288 0,-1.944 0.576,-0.432 -0.576,-0.432 0,-1.296 2.808,2.016 -1.008,0.72 -0.504,-0.432 z"
           id="path350"
           inkscape:connector-curvature="0" />
      </g>
      <g
         style="fill:#000000"
         id="g352"
         transform="translate(36.0581,-80.79684)">
        <path
           d="m 77.328,664.354 -0.648,0.432 -1.008,-4.176 1.08,-0.792 0.576,0.432 0,1.296 -0.576,-0.504 0.432,1.44 0.144,-0.072 0,1.944 z"
           id="path354"
           inkscape:connector-curvature="0" />
      </g>
      <g
         style="fill:#000000"
         id="g356"
         transform="translate(36.0581,-80.79684)">
        <path
           d="m 77.976,658.954 0.864,-0.864 1.944,2.376 1.44,-1.296 0.648,0.72 -2.376,2.16 -2.52,-3.096 z"
           id="path358"
           inkscape:connector-curvature="0" />
      </g>
    </g>
    <g
       transform="translate(36.0581,-80.79684)"
       id="g360"
       style="fill:#000000">
      <path
         id="path362"
         d="m 84.384,653.482 c 0.072,0 0.144,0 0.144,0 0.216,0 0.432,0.072 0.648,0.216 0.216,0.144 0.432,0.288 0.648,0.504 0.288,0.288 0.504,0.576 0.576,0.792 0.072,0.216 0.144,0.504 0.144,0.72 0,0.216 -0.072,0.432 -0.216,0.648 -0.144,0.216 -0.216,0.432 -0.432,0.576 l -1.224,1.368 -0.288,-0.288 0,-1.8 0.504,0.504 0.216,-0.216 c 0.144,-0.144 0.288,-0.288 0.288,-0.432 0.072,-0.144 0.072,-0.288 0,-0.432 -0.072,-0.144 -0.216,-0.288 -0.432,-0.576 -0.216,-0.216 -0.36,-0.36 -0.576,-0.432 l 0,-1.152 z"
         inkscape:connector-curvature="0" />
    </g>
    <g
       transform="translate(36.0581,-80.79684)"
       id="g364"
       style="fill:#000000">
      <path
         id="path366"
         d="m 81.864,655.426 1.296,-1.368 c 0.288,-0.216 0.504,-0.432 0.72,-0.504 0.144,-0.072 0.36,-0.072 0.504,-0.072 l 0,1.152 c -0.072,0 -0.072,0 -0.144,0 -0.216,0 -0.432,0.072 -0.648,0.288 l -0.216,0.216 1.008,1.08 0,1.8 -2.52,-2.592 z"
         inkscape:connector-curvature="0" />
    </g>
    <g
       transform="translate(36.0581,-80.79684)"
       id="g368"
       style="fill:#000000">
      <path
         id="path370"
         d="m 84.672,652.618 2.088,-2.592 0.648,0.504 -1.296,1.656 0.432,0.432 1.224,-1.512 0.576,0.504 -1.152,1.512 0.576,0.504 1.296,-1.656 0.72,0.576 -2.088,2.664 -3.024,-2.592 z"
         inkscape:connector-curvature="0" />
    </g>
    <g
       transform="translate(36.0581,-80.79684)"
       id="g372"
       style="fill:#000000">
      <path
         id="path374"
         d="m 88.2,648.082 0.72,-1.008 2.376,1.8 1.152,-1.512 0.72,0.576 -1.872,2.592 -3.096,-2.448 z"
         inkscape:connector-curvature="0" />
    </g>
    <g
       transform="translate(36.0581,-80.79684)"
       id="g376"
       style="fill:#000000">
      <path
         id="path378"
         d="m 94.176,644.986 -0.648,1.224 0.432,0.504 -0.648,1.08 -0.648,-0.864 0,-1.728 0.216,0.288 0.432,-0.72 -0.648,-0.216 0,-1.08 2.808,0.576 -0.648,1.08 -0.648,-0.144 z"
         inkscape:connector-curvature="0" />
    </g>
    <g
       transform="translate(36.0581,-80.79684)"
       id="g380"
       style="fill:#000000">
      <path
         id="path382"
         d="m 92.664,646.93 -1.944,-2.52 0.648,-1.152 1.296,0.216 0,1.08 -0.72,-0.144 0.72,0.792 0,1.728 z"
         inkscape:connector-curvature="0" />
    </g>
    <g
       transform="translate(36.0581,-80.79684)"
       id="g384"
       style="fill:#000000">
      <path
         id="path386"
         d="m 94.896,637.57 c 0.216,-0.072 0.504,0 0.792,0.144 0.36,0.144 0.576,0.432 0.648,0.72 0.144,0.36 0.072,0.72 -0.144,1.224 l -0.36,0.576 1.296,0.72 -0.504,1.08 -1.728,-0.864 0,-1.44 0.288,0.144 0.144,-0.288 c 0.072,-0.216 0.144,-0.36 0.072,-0.504 0,-0.144 -0.072,-0.216 -0.216,-0.288 -0.072,-0.072 -0.216,-0.072 -0.288,0 l 0,-1.224 z"
         inkscape:connector-curvature="0" />
    </g>
    <g
       transform="translate(36.0581,-80.79684)"
       id="g388"
       style="fill:#000000">
      <path
         id="path390"
         d="m 93.096,640.234 0.936,-1.872 c 0.216,-0.432 0.432,-0.648 0.72,-0.792 0.072,0 0.072,0 0.144,0 l 0,1.224 0,0 c -0.144,0 -0.288,0.144 -0.36,0.36 l -0.144,0.288 0.504,0.288 0,1.44 -1.8,-0.936 z"
         inkscape:connector-curvature="0" />
    </g>
    <g
       transform="translate(36.0581,-80.79684)"
       id="g392"
       style="fill:#000000">
      <path
         id="path394"
         d="m 98.496,636.202 -0.504,1.368 0.504,0.432 -0.504,1.152 -1.08,-1.08 0,-1.44 0.36,0.288 0.36,-0.792 -0.72,-0.072 0,-1.08 2.736,0.144 -0.504,1.152 -0.648,-0.072 z"
         inkscape:connector-curvature="0" />
    </g>
    <g
       transform="translate(36.0581,-80.79684)"
       id="g396"
       style="fill:#000000">
      <path
         id="path398"
         d="m 96.912,638.074 -1.944,-1.872 0.504,-1.296 1.44,0.072 0,1.08 -0.72,-0.072 0.72,0.648 0,1.44 z"
         inkscape:connector-curvature="0" />
    </g>
    <g
       transform="translate(36.0581,-80.79684)"
       id="g400"
       style="fill:#000000">
      <path
         id="path402"
         d="m 95.904,633.898 1.296,-3.528 0.936,0.36 -0.432,1.152 2.736,1.08 -0.432,1.224 -2.736,-1.152 -0.432,1.224 -0.936,-0.36 z"
         inkscape:connector-curvature="0" />
    </g>
    <g
       transform="translate(36.0581,-80.79684)"
       id="g404"
       style="fill:#000000">
      <path
         id="path406"
         d="m 100.944,629.074 -0.36,1.368 0.576,0.36 -0.36,1.224 -1.44,-1.08 0,-1.296 0.432,0.288 0.288,-0.864 -0.72,0 0,-1.008 2.592,-0.288 -0.36,1.296 -0.648,0 z"
         inkscape:connector-curvature="0" />
    </g>
    <g
       transform="translate(36.0581,-80.79684)"
       id="g408"
       style="fill:#000000">
      <path
         id="path410"
         d="m 99.36,630.946 -1.944,-1.44 0.36,-1.368 1.584,-0.072 0,1.008 -0.792,0.072 0.792,0.504 0,1.296 z"
         inkscape:connector-curvature="0" />
    </g>
    <g
       transform="translate(36.0581,-80.79684)"
       id="g412"
       style="fill:#000000">
      <path
         id="path414"
         d="m 100.944,625.258 -0.792,-0.144 0.36,-1.944 1.584,0.288 c 0.216,0.432 0.288,0.792 0.36,1.08 0,0.288 0,0.648 -0.072,1.008 -0.072,0.504 -0.216,0.864 -0.432,1.152 -0.216,0.288 -0.432,0.432 -0.792,0.576 -0.36,0.072 -0.72,0.144 -1.08,0.072 -0.432,-0.144 -0.792,-0.288 -1.08,-0.504 -0.288,-0.216 -0.432,-0.576 -0.576,-0.936 -0.072,-0.288 -0.072,-0.648 0,-1.152 0.072,-0.432 0.216,-0.72 0.288,-0.936 0.144,-0.216 0.288,-0.36 0.432,-0.504 0.216,-0.072 0.432,-0.144 0.72,-0.216 l 0,1.224 c -0.144,0.072 -0.288,0.144 -0.432,0.216 -0.072,0.072 -0.144,0.216 -0.144,0.432 -0.072,0.288 0,0.504 0.144,0.72 0.144,0.144 0.432,0.288 0.792,0.36 0.432,0.072 0.792,0.072 0.936,-0.072 0.216,-0.144 0.36,-0.36 0.432,-0.648 0,-0.144 0,-0.288 0,-0.36 0,-0.144 -0.072,-0.288 -0.144,-0.504 l -0.36,-0.072 -0.144,0.864 z"
         inkscape:connector-curvature="0" />
    </g>
    <g
       transform="translate(36.0581,-80.79684)"
       id="g416"
       style="fill:#000000">
      <path
         id="path418"
         d="m 101.16,618.562 c 0.072,0 0.144,0 0.216,0 0.432,0.072 0.792,0.144 1.08,0.36 0.288,0.216 0.504,0.504 0.576,0.792 0.144,0.288 0.216,0.72 0.144,1.152 -0.072,0.432 -0.144,0.792 -0.36,1.08 -0.144,0.288 -0.432,0.504 -0.72,0.648 -0.288,0.144 -0.576,0.216 -0.936,0.144 l 0,-1.224 c 0.36,0 0.576,0 0.792,-0.144 0.216,-0.144 0.288,-0.288 0.288,-0.576 0.072,-0.288 0,-0.504 -0.144,-0.648 -0.144,-0.144 -0.432,-0.288 -0.864,-0.36 l -0.072,0 0,-1.224 z"
         inkscape:connector-curvature="0" />
    </g>
    <g
       transform="translate(36.0581,-80.79684)"
       id="g420"
       style="fill:#000000">
      <path
         id="path422"
         d="m 100.944,622.738 c -0.648,-0.072 -1.152,-0.288 -1.44,-0.72 -0.288,-0.432 -0.432,-0.936 -0.36,-1.584 0.072,-0.72 0.36,-1.224 0.72,-1.512 0.36,-0.288 0.792,-0.432 1.296,-0.36 l 0,1.224 c -0.36,0 -0.576,0 -0.792,0.144 -0.144,0.144 -0.288,0.36 -0.288,0.576 -0.072,0.288 0,0.504 0.144,0.648 0.216,0.216 0.432,0.288 0.864,0.36 0,0 0.072,0 0.072,0 l 0,1.224 c -0.072,0 -0.144,0 -0.216,0 z"
         inkscape:connector-curvature="0" />
    </g>
    <g
       transform="translate(36.0581,-80.79684)"
       id="g424"
       style="fill:#000000">
      <path
         id="path426"
         d="m 99.648,617.842 0.072,-1.224 2.304,-1.296 -2.16,-0.216 0.072,-1.152 3.888,0.36 -0.072,1.152 -2.232,1.296 2.088,0.216 -0.072,1.152 -3.888,-0.288 z"
         inkscape:connector-curvature="0" />
    </g>
    <g
       transform="translate(36.0581,-80.79684)"
       id="g428"
       style="fill:#000000">
      <path
         id="path430"
         d="m 100.008,613.09 0.144,-1.224 3.888,0.288 -0.144,1.224 -3.888,-0.288 z"
         inkscape:connector-curvature="0" />
    </g>
    <g
       transform="translate(36.0581,-80.79684)"
       id="g432"
       style="fill:#000000">
      <path
         id="path434"
         d="m 103.608,608.698 -0.072,1.44 0.648,0.216 0,1.296 -2.16,-0.936 0,-1.152 0.72,0.288 0,-0.936 -0.72,0.216 0,-1.152 2.304,-0.792 -0.072,1.368 -0.648,0.144 z"
         inkscape:connector-curvature="0" />
    </g>
    <g
       transform="translate(36.0581,-80.79684)"
       id="g436"
       style="fill:#000000">
      <path
         id="path438"
         d="m 102.024,610.714 -1.728,-0.72 0.072,-1.44 1.656,-0.576 0,1.152 -0.648,0.216 0.648,0.216 0,1.152 z"
         inkscape:connector-curvature="0" />
    </g>
    <g
       transform="translate(36.0581,-80.79684)"
       id="g440"
       style="fill:#000000">
      <path
         id="path442"
         d="m 103.104,605.098 -0.072,-1.152 c 0.144,-0.072 0.288,-0.072 0.432,-0.144 0.144,-0.144 0.216,-0.36 0.216,-0.576 0,-0.216 0,-0.36 -0.144,-0.432 -0.072,-0.072 -0.144,-0.144 -0.216,-0.144 -0.144,0 -0.216,0.072 -0.288,0.144 -0.072,0.072 -0.144,0.288 -0.216,0.648 -0.144,0.576 -0.288,0.936 -0.504,1.152 -0.216,0.288 -0.432,0.36 -0.72,0.36 -0.216,0 -0.432,-0.072 -0.576,-0.144 -0.216,-0.144 -0.36,-0.36 -0.432,-0.576 -0.144,-0.216 -0.144,-0.576 -0.144,-1.008 0,-0.504 0.072,-0.936 0.288,-1.152 0.144,-0.288 0.432,-0.432 0.864,-0.504 l 0.072,1.152 c -0.216,0.072 -0.288,0.144 -0.432,0.216 -0.072,0.072 -0.072,0.216 -0.072,0.432 0,0.144 0,0.216 0.072,0.36 0.072,0.072 0.144,0.072 0.216,0.072 0.072,0 0.144,0 0.144,-0.072 0.072,-0.072 0.144,-0.216 0.144,-0.432 0.144,-0.576 0.288,-0.936 0.36,-1.224 0.144,-0.216 0.288,-0.36 0.432,-0.504 0.216,-0.072 0.36,-0.144 0.576,-0.144 0.288,0 0.504,0.072 0.72,0.216 0.216,0.144 0.36,0.36 0.432,0.576 0.144,0.288 0.216,0.648 0.216,1.008 0,0.72 -0.144,1.152 -0.432,1.44 -0.216,0.288 -0.576,0.432 -0.936,0.432 z"
         inkscape:connector-curvature="0" />
    </g>
    <g
       transform="translate(36.0581,-80.79684)"
       id="g444"
       style="fill:#000000">
      <path
         id="path446"
         d="m 103.68,598.33 0.072,1.44 0.648,0.144 0,1.296 -2.232,-0.792 0,-1.152 0.72,0.216 0,-0.864 -0.72,0.216 0,-1.152 2.16,-0.936 0,1.368 -0.648,0.216 z"
         inkscape:connector-curvature="0" />
    </g>
    <g
       transform="translate(36.0581,-80.79684)"
       id="g448"
       style="fill:#000000">
      <path
         id="path450"
         d="m 102.168,600.418 -1.728,-0.648 0,-1.368 1.728,-0.72 0,1.152 -0.72,0.216 0.72,0.216 0,1.152 z"
         inkscape:connector-curvature="0" />
    </g>
    <g
       transform="translate(36.0581,-80.79684)"
       id="g452"
       style="fill:#000000">
      <path
         id="path454"
         d="m 100.44,596.602 -0.072,-1.224 2.088,-1.656 -2.16,0.144 -0.072,-1.224 3.888,-0.144 0.072,1.152 -2.088,1.656 2.16,-0.144 0.072,1.224 -3.888,0.216 z"
         inkscape:connector-curvature="0" />
    </g>
    <g
       transform="translate(36.0581,-80.79684)"
       id="g456"
       style="fill:#000000">
      <path
         id="path458"
         d="m 99.936,588.394 -0.144,-1.296 2.16,-0.144 c 0.432,-0.072 0.792,-0.072 1.008,0 0.216,0.072 0.432,0.216 0.648,0.432 0.144,0.216 0.288,0.576 0.288,0.936 0.072,0.432 0,0.72 -0.072,0.936 -0.072,0.288 -0.216,0.432 -0.432,0.576 -0.216,0.144 -0.432,0.288 -0.72,0.288 l -0.288,-1.152 c 0.216,0 0.288,-0.072 0.432,-0.072 0.072,-0.072 0.144,-0.144 0.144,-0.216 0.072,0 0.072,-0.072 0.072,-0.216 0,-0.072 -0.072,-0.216 -0.216,-0.288 -0.072,0 -0.288,-0.072 -0.504,0 l -2.376,0.216 z"
         inkscape:connector-curvature="0" />
    </g>
    <g
       transform="translate(36.0581,-80.79684)"
       id="g460"
       style="fill:#000000">
      <path
         id="path462"
         d="m 99.504,583.714 -0.144,-1.224 2.304,-0.288 c 0.288,0 0.504,0 0.72,0.072 0.216,0.072 0.36,0.144 0.576,0.288 0.144,0.144 0.288,0.288 0.36,0.504 0.072,0.216 0.144,0.504 0.216,0.864 0,0.144 0,0.36 0,0.648 0,0.216 0,0.432 -0.072,0.576 -0.072,0.144 -0.144,0.288 -0.288,0.432 -0.144,0.144 -0.288,0.288 -0.432,0.36 -0.216,0.072 -0.432,0.144 -0.648,0.144 l -2.304,0.288 -0.144,-1.224 2.376,-0.288 c 0.216,0 0.36,-0.072 0.504,-0.216 0.072,-0.144 0.144,-0.36 0.072,-0.576 0,-0.216 -0.072,-0.36 -0.216,-0.504 -0.144,-0.072 -0.288,-0.144 -0.504,-0.072 l -2.376,0.216 z"
         inkscape:connector-curvature="0" />
    </g>
    <g
       transform="translate(36.0581,-80.79684)"
       id="g464"
       style="fill:#000000">
      <path
         id="path466"
         d="m 102.312,579.034 0.144,1.368 0.648,0.144 0.216,1.224 -2.448,-0.504 0,-1.08 0.72,0.072 -0.144,-0.864 -0.576,0.288 0,-1.224 1.872,-1.08 0.144,1.368 -0.576,0.288 z"
         inkscape:connector-curvature="0" />
    </g>
    <g
       transform="translate(36.0581,-80.79684)"
       id="g468"
       style="fill:#000000">
      <path
         id="path470"
         d="m 100.872,581.266 -1.656,-0.432 -0.144,-1.368 1.8,-1.008 0,1.224 -0.72,0.36 0.72,0.144 0,1.08 z"
         inkscape:connector-curvature="0" />
    </g>
    <g
       transform="translate(36.0581,-80.79684)"
       id="g472"
       style="fill:#000000">
      <path
         id="path474"
         d="m 98.784,578.098 -0.288,-1.152 1.656,-2.088 -2.088,0.576 -0.288,-1.152 3.816,-1.008 0.288,1.152 -1.728,2.016 2.088,-0.576 0.288,1.152 -3.744,1.08 z"
         inkscape:connector-curvature="0" />
    </g>
    <g
       transform="translate(36.0581,-80.79684)"
       id="g476"
       style="fill:#000000">
      <path
         id="path478"
         d="m 99,567.514 c 0.216,0.072 0.36,0.144 0.432,0.216 0.144,0.072 0.216,0.216 0.288,0.432 0.144,0.216 0.216,0.36 0.288,0.504 l 0.792,2.016 -1.8,0.72 0,-1.368 0.576,-0.216 -0.288,-0.576 c -0.072,-0.216 -0.144,-0.36 -0.216,-0.432 l -0.072,0 0,-1.296 z"
         inkscape:connector-curvature="0" />
    </g>
    <g
       transform="translate(36.0581,-80.79684)"
       id="g480"
       style="fill:#000000">
      <path
         id="path482"
         d="m 97.632,568.594 c 0.072,0.072 0.144,0.144 0.144,0.144 0,-0.288 0,-0.504 0.144,-0.72 0.072,-0.144 0.216,-0.288 0.504,-0.432 0.144,-0.072 0.36,-0.072 0.504,-0.072 l 0.072,0 0,1.296 c -0.072,0 -0.144,0 -0.288,0 -0.072,0.072 -0.144,0.144 -0.216,0.216 0,0.144 0,0.288 0.072,0.504 l 0.216,0.576 0.216,-0.072 0,1.368 -1.368,0.576 0,-1.368 0.504,-0.216 -0.216,-0.504 c -0.072,-0.144 -0.144,-0.288 -0.216,-0.36 0,0 -0.072,0 -0.072,0 l 0,-0.936 z"
         inkscape:connector-curvature="0" />
    </g>
    <g
       transform="translate(36.0581,-80.79684)"
       id="g484"
       style="fill:#000000">
      <path
         id="path486"
         d="m 97.128,572.194 -0.792,-2.16 c -0.144,-0.432 -0.216,-0.72 -0.072,-1.008 0.072,-0.216 0.288,-0.432 0.504,-0.504 0.216,-0.144 0.432,-0.144 0.648,-0.072 0.072,0.072 0.144,0.072 0.216,0.144 l 0,0.936 c -0.072,0 -0.144,0 -0.216,0 -0.144,0.072 -0.216,0.144 -0.216,0.216 -0.072,0.144 0,0.288 0.072,0.432 l 0.144,0.504 0.216,-0.072 0,1.368 -0.504,0.216 z"
         inkscape:connector-curvature="0" />
    </g>
    <g
       transform="translate(36.0581,-80.79684)"
       id="g488"
       style="fill:#000000">
      <path
         id="path490"
         d="m 97.56,567.658 c -0.36,0.216 -0.648,0.288 -0.936,0.36 l 0,-1.296 c 0.072,0 0.216,-0.072 0.36,-0.144 0.36,-0.216 0.576,-0.432 0.648,-0.648 0.072,-0.216 0.072,-0.432 -0.072,-0.648 -0.072,-0.288 -0.288,-0.432 -0.504,-0.432 -0.072,-0.072 -0.288,0 -0.432,0.072 l 0,-1.296 c 0,0 0.072,0 0.072,0 0.36,0 0.648,0.072 0.936,0.288 0.288,0.144 0.504,0.504 0.72,0.864 0.216,0.432 0.36,0.792 0.36,1.152 0,0.288 -0.072,0.648 -0.288,0.936 -0.144,0.288 -0.432,0.576 -0.864,0.792 z"
         inkscape:connector-curvature="0" />
    </g>
    <g
       transform="translate(36.0581,-80.79684)"
       id="g492"
       style="fill:#000000">
      <path
         id="path494"
         d="m 96.624,568.018 c -0.216,0 -0.432,-0.072 -0.648,-0.072 -0.432,-0.216 -0.864,-0.576 -1.152,-1.152 -0.288,-0.576 -0.36,-1.152 -0.216,-1.656 0.144,-0.432 0.432,-0.864 1.008,-1.152 0.36,-0.216 0.72,-0.36 1.008,-0.36 l 0,1.296 c -0.144,0 -0.288,0.072 -0.432,0.144 -0.36,0.216 -0.504,0.432 -0.648,0.648 -0.072,0.216 0,0.432 0.072,0.648 0.144,0.216 0.288,0.36 0.504,0.432 0.144,0 0.288,0 0.504,-0.072 l 0,1.296 z"
         inkscape:connector-curvature="0" />
    </g>
    <g
       transform="translate(36.0581,-80.79684)"
       id="g496"
       style="fill:#000000">
      <path
         id="path498"
         d="m 96.12,563.194 -0.648,-0.936 c 0.144,-0.144 0.216,-0.288 0.288,-0.36 0.072,-0.216 0.072,-0.432 -0.072,-0.648 -0.072,-0.144 -0.216,-0.216 -0.36,-0.288 -0.072,0 -0.216,0 -0.288,0.072 -0.072,0.072 -0.144,0.144 -0.144,0.288 0,0.072 0,0.288 0.144,0.648 0.144,0.504 0.216,0.936 0.216,1.224 -0.072,0.36 -0.216,0.576 -0.504,0.72 -0.144,0.144 -0.36,0.216 -0.576,0.216 -0.216,0 -0.432,-0.072 -0.648,-0.288 -0.216,-0.144 -0.432,-0.36 -0.648,-0.72 -0.216,-0.432 -0.36,-0.864 -0.36,-1.152 0.072,-0.36 0.216,-0.648 0.504,-0.936 l 0.72,1.008 c -0.144,0.072 -0.216,0.216 -0.288,0.36 0,0.144 0.072,0.288 0.144,0.432 0.072,0.072 0.144,0.216 0.216,0.216 0.144,0 0.216,0 0.288,0 0,-0.072 0.072,-0.144 0.072,-0.216 0,-0.072 0,-0.216 -0.072,-0.432 -0.216,-0.504 -0.288,-0.936 -0.36,-1.152 0,-0.288 0.072,-0.504 0.144,-0.72 0.072,-0.216 0.216,-0.36 0.432,-0.432 0.144,-0.144 0.432,-0.216 0.648,-0.216 0.288,0 0.504,0.072 0.72,0.216 0.216,0.216 0.432,0.432 0.648,0.792 0.36,0.576 0.504,1.08 0.432,1.44 -0.144,0.36 -0.288,0.648 -0.648,0.864 z"
         inkscape:connector-curvature="0" />
    </g>
    <g
       transform="translate(36.0581,-80.79684)"
       id="g500"
       style="fill:#000000">
      <path
         id="path502"
         d="m 92.232,557.578 -0.288,-1.08 c 0.216,-0.144 0.504,-0.144 0.792,-0.144 0.216,0 0.432,0.072 0.648,0.216 0.216,0.144 0.432,0.36 0.648,0.648 0.216,0.36 0.36,0.72 0.432,1.008 0.072,0.288 0,0.648 -0.144,0.936 -0.144,0.36 -0.432,0.72 -0.792,1.008 -0.504,0.36 -1.008,0.504 -1.512,0.432 -0.504,-0.072 -0.936,-0.36 -1.296,-0.936 -0.288,-0.432 -0.36,-0.792 -0.36,-1.152 0,-0.36 0.072,-0.72 0.36,-1.08 l 0.792,0.72 c -0.072,0.144 -0.144,0.216 -0.144,0.288 0,0.144 -0.072,0.216 0,0.36 0,0.072 0,0.216 0.072,0.288 0.216,0.288 0.432,0.36 0.648,0.36 0.216,0 0.432,-0.144 0.72,-0.288 0.36,-0.288 0.576,-0.504 0.648,-0.72 0.072,-0.216 0,-0.432 -0.144,-0.648 -0.144,-0.216 -0.288,-0.288 -0.432,-0.288 -0.216,-0.072 -0.36,0 -0.648,0.072 z"
         inkscape:connector-curvature="0" />
    </g>
    <g
       transform="translate(36.0581,-80.79684)"
       id="g504"
       style="fill:#000000">
      <path
         id="path506"
         d="m 91.152,556.642 c -0.432,0.432 -0.864,0.576 -1.296,0.576 l 0,-1.152 c 0.144,-0.072 0.36,-0.216 0.504,-0.36 0.36,-0.288 0.504,-0.504 0.504,-0.72 0.072,-0.288 0,-0.504 -0.144,-0.648 -0.144,-0.216 -0.36,-0.36 -0.576,-0.36 -0.072,0 -0.216,0.072 -0.288,0.072 l 0,-1.224 c 0.216,0 0.432,0.072 0.648,0.144 0.288,0.144 0.576,0.36 0.864,0.72 0.288,0.36 0.504,0.648 0.576,1.008 0.072,0.288 0,0.648 -0.072,1.008 -0.144,0.36 -0.36,0.648 -0.72,0.936 z"
         inkscape:connector-curvature="0" />
    </g>
    <g
       transform="translate(36.0581,-80.79684)"
       id="g508"
       style="fill:#000000">
      <path
         id="path510"
         d="m 89.856,557.218 c -0.072,0 -0.144,0 -0.144,0 -0.504,0 -1.008,-0.288 -1.368,-0.792 -0.432,-0.504 -0.648,-1.08 -0.576,-1.584 0,-0.504 0.288,-0.936 0.792,-1.368 0.36,-0.288 0.648,-0.504 1.008,-0.576 0.072,0 0.216,-0.072 0.288,-0.072 l 0,1.224 c -0.144,0.072 -0.36,0.216 -0.576,0.36 -0.288,0.288 -0.432,0.504 -0.432,0.72 -0.072,0.288 0,0.504 0.144,0.648 0.216,0.216 0.36,0.288 0.576,0.288 0.144,0 0.216,0 0.288,0 l 0,1.152 z"
         inkscape:connector-curvature="0" />
    </g>
    <path
       transform="matrix(1,-0.233333,0,1,61.76619,-94.08492)"
       d="m 46.074232,586.11096 a 30.048412,21.534697 0 0 1 -30.048412,21.5347 30.048412,21.534697 0 0 1 -30.048413,-21.5347 30.048412,21.534697 0 0 1 30.048413,-21.53469 30.048412,21.534697 0 0 1 30.048412,21.53469 z"
       sodipodi:ry="21.534697"
       sodipodi:rx="30.048412"
       sodipodi:cy="586.11096"
       sodipodi:cx="16.02582"
       id="path2396"
       style="opacity:0.96774196;color:#000000;fill:url(#linearGradient3417);fill-opacity:1;fill-rule:nonzero;stroke:none;stroke-width:0.2;marker:none;visibility:visible;display:inline;overflow:visible"
       sodipodi:type="arc" />
    <path
       transform="matrix(0.980952,0,0,1.17,2.957145,-85.56452)"
       d="M 120.19365,528.85205 A 35.05648,33.387127 0 0 1 85.137169,562.23918 35.05648,33.387127 0 0 1 50.080688,528.85205 35.05648,33.387127 0 0 1 85.137169,495.46492 35.05648,33.387127 0 0 1 120.19365,528.85205 Z"
       sodipodi:ry="33.387127"
       sodipodi:rx="35.05648"
       sodipodi:cy="528.85205"
       sodipodi:cx="85.137169"
       id="path3132"
       style="opacity:0.26209675;color:#000000;fill:url(#radialGradient3419);fill-opacity:1;fill-rule:nonzero;stroke:none;stroke-width:0.2;marker:none;visibility:visible;display:inline;overflow:visible"
       sodipodi:type="arc" />
  </g>
</svg>
