<?xml version="1.0" encoding="UTF-8" standalone="no"?>
<!-- Created with Inkscape (http://www.inkscape.org/) -->

<svg
   xmlns:dc="http://purl.org/dc/elements/1.1/"
   xmlns:cc="http://creativecommons.org/ns#"
   xmlns:rdf="http://www.w3.org/1999/02/22-rdf-syntax-ns#"
   xmlns:svg="http://www.w3.org/2000/svg"
   xmlns="http://www.w3.org/2000/svg"
   xmlns:sodipodi="http://sodipodi.sourceforge.net/DTD/sodipodi-0.dtd"
   xmlns:inkscape="http://www.inkscape.org/namespaces/inkscape"
   width="122.08246mm"
   height="120.55064mm"
   viewBox="0 0 432.57563 427.14792"
   id="svg2"
   version="1.1"
   inkscape:version="0.91 r13725"
   sodipodi:docname="logo_mascara_ids_plano.svg">
  <defs
     id="defs4" />
  <sodipodi:namedview
     id="base"
     pagecolor="#ffffff"
     bordercolor="#666666"
     borderopacity="1.0"
     inkscape:pageopacity="0.0"
     inkscape:pageshadow="2"
     inkscape:zoom="0.97807018"
     inkscape:cx="252.33423"
     inkscape:cy="148.80641"
     inkscape:document-units="px"
     inkscape:current-layer="svg2"
     showgrid="false"
     inkscape:window-width="1440"
     inkscape:window-height="851"
     inkscape:window-x="8"
     inkscape:window-y="0"
     inkscape:window-maximized="0"
     fit-margin-top="5"
     fit-margin-left="5"
     fit-margin-right="5"
     fit-margin-bottom="5" />
  <g
     inkscape:groupmode="layer"
     id="cuadrados"
     inkscape:label="Simbolo"
     style="display:inline"
     transform="translate(522.71642,-99.645182)">
    <path
       style="opacity:1;fill:#c9bfcc;fill-opacity:1;stroke:none;stroke-width:4;stroke-linecap:round;stroke-miterlimit:4;stroke-dasharray:none;stroke-dashoffset:0;stroke-opacity:1"
       d="m 302.875,110.54102 3.3418,3.34179 3.34179,-3.34179 -6.68359,0 z"
       transform="translate(-613.74207,6.8206976)"
       id="rect4551"
       inkscape:connector-curvature="0" />
    <path
       style="opacity:1;fill:#5a4c48;fill-opacity:1;stroke:none;stroke-width:4;stroke-linecap:round;stroke-miterlimit:4;stroke-dasharray:none;stroke-dashoffset:0;stroke-opacity:1"
       d="m 274.45703,110.54102 0,35.10156 31.75977,-31.75977 -3.3418,-3.34179 -28.41797,0 z"
       transform="translate(-613.74207,6.8206976)"
       id="use4555"
       inkscape:connector-curvature="0" />
    <path
       style="opacity:1;fill:#c49b6d;fill-opacity:1;stroke:none;stroke-width:4;stroke-linecap:round;stroke-miterlimit:4;stroke-dasharray:none;stroke-dashoffset:0;stroke-opacity:1"
       d="m 181.83398,149.95117 a 198.57143,198.57143 0 0 0 -16.57031,15.3125 l 39.2168,39.2168 c 3.90914,-4.03652 8.02632,-7.87203 12.33594,-11.47266 l -34.98243,-43.05664 z"
       transform="translate(-613.74207,6.8206976)"
       id="use4557"
       inkscape:connector-curvature="0" />
    <path
       style="opacity:1;fill:#672f90;fill-opacity:1;stroke:none;stroke-width:4;stroke-linecap:round;stroke-miterlimit:4;stroke-dasharray:none;stroke-dashoffset:0;stroke-opacity:1"
       d="m 165.26367,165.26367 a 198.57143,198.57143 0 0 0 -38.87109,57.29492 l 35.57422,35.57422 15.01172,-15.01367 c 7.07613,-14.14009 16.43506,-27.21116 27.50195,-38.63867 l -39.2168,-39.2168 z"
       transform="translate(-613.74207,6.8206976)"
       id="use4559"
       inkscape:connector-curvature="0" />
    <path
       style="opacity:1;fill:#eb2c79;fill-opacity:1;stroke:none;stroke-width:4;stroke-linecap:round;stroke-miterlimit:4;stroke-dasharray:none;stroke-dashoffset:0;stroke-opacity:1"
       d="m 126.39258,222.55859 a 198.57143,198.57143 0 0 0 -17.54102,78.62696 l 5.03125,5.03125 48.08399,-48.08399 -35.57422,-35.57422 z"
       transform="translate(-613.74207,6.8206976)"
       id="use4561"
       inkscape:connector-curvature="0" />
    <path
       style="opacity:1;fill:#c2dfb3;fill-opacity:1;stroke:none;stroke-width:4;stroke-linecap:round;stroke-miterlimit:4;stroke-dasharray:none;stroke-dashoffset:0;stroke-opacity:1"
       d="m 108.85156,301.18555 a 198.57143,198.57143 0 0 0 -0.10937,2.5 198.57143,198.57143 0 0 0 0.36523,7.30664 l 4.77539,-4.77539 -5.03125,-5.03125 z"
       transform="translate(-613.74207,6.8206976)"
       id="use4563"
       inkscape:connector-curvature="0" />
    <path
       style="opacity:1;fill:#fa602d;fill-opacity:1;stroke:none;stroke-width:4;stroke-linecap:round;stroke-miterlimit:4;stroke-dasharray:none;stroke-dashoffset:0;stroke-opacity:1"
       d="m 309.55859,110.54102 -3.34179,3.34179 21.09765,21.09766 0,-24.43945 -17.75586,0 z"
       transform="translate(-613.74207,6.8206976)"
       id="use4565"
       inkscape:connector-curvature="0" />
    <path
       style="opacity:1;fill:#ddb827;fill-opacity:1;stroke:none;stroke-width:4;stroke-linecap:round;stroke-miterlimit:4;stroke-dasharray:none;stroke-dashoffset:0;stroke-opacity:1"
       d="m 306.2168,113.88281 -31.75977,31.75977 0,32.64844 31.75977,31.75781 21.09765,-21.09766 0,-53.9707 -21.09765,-21.09766 z"
       transform="translate(-613.74207,6.8206976)"
       id="use4567"
       inkscape:connector-curvature="0" />
    <path
       style="opacity:1;fill:#28a5ea;fill-opacity:1;stroke:none;stroke-width:4;stroke-linecap:round;stroke-miterlimit:4;stroke-dasharray:none;stroke-dashoffset:0;stroke-opacity:1"
       d="m 274.45703,178.29102 0,63.51757 31.75977,-31.75976 -31.75977,-31.75781 z"
       transform="translate(-613.74207,6.8206976)"
       id="use4569"
       inkscape:connector-curvature="0" />
    <path
       style="opacity:1;fill:#52668c;fill-opacity:1;stroke:none;stroke-width:4;stroke-linecap:round;stroke-miterlimit:4;stroke-dasharray:none;stroke-dashoffset:0;stroke-opacity:1"
       d="m 176.97852,243.11914 -15.01172,15.01367 6.35547,6.35547 c 2.29699,-7.33289 5.2071,-14.47678 8.65625,-21.36914 z"
       transform="translate(-613.74207,6.8206976)"
       id="use4571"
       inkscape:connector-curvature="0" />
    <path
       style="opacity:1;fill:#e8817c;fill-opacity:1;stroke:none;stroke-width:4;stroke-linecap:round;stroke-miterlimit:4;stroke-dasharray:none;stroke-dashoffset:0;stroke-opacity:1"
       d="m 161.9668,258.13281 -48.08399,48.08399 48.08399,48.08203 7.61523,-7.61524 c -4.75144,-13.77247 -7.36515,-28.25454 -7.36523,-42.99804 -6e-5,-13.3925 2.15048,-26.57145 6.10547,-39.19727 l -6.35547,-6.35547 z"
       transform="translate(-613.74207,6.8206976)"
       id="use4573"
       inkscape:connector-curvature="0" />
    <path
       style="opacity:1;fill:#fdae42;fill-opacity:1;stroke:none;stroke-width:4;stroke-linecap:round;stroke-miterlimit:4;stroke-dasharray:none;stroke-dashoffset:0;stroke-opacity:1"
       d="m 113.88281,306.2168 -4.77539,4.77539 a 198.57143,198.57143 0 0 0 18.83985,77.32617 L 161.9668,354.29883 113.88281,306.2168 Z"
       transform="translate(-613.74207,6.8206976)"
       id="use4575"
       inkscape:connector-curvature="0" />
    <path
       style="opacity:1;fill:#dda0a9;fill-opacity:1;stroke:none;stroke-width:4;stroke-linecap:round;stroke-miterlimit:4;stroke-dasharray:none;stroke-dashoffset:0;stroke-opacity:1"
       d="m 426.48242,145.08789 -34.40039,43.35742 c 5.99955,4.55904 11.67101,9.5626 16.97266,14.93164 l 39.15234,-39.15039 a 198.57143,198.57143 0 0 0 -21.72461,-19.13867 z"
       transform="translate(-613.74207,6.8206976)"
       id="use4577"
       inkscape:connector-curvature="0" />
    <path
       style="opacity:1;fill:#f6f48e;fill-opacity:1;stroke:none;stroke-width:4;stroke-linecap:round;stroke-miterlimit:4;stroke-dasharray:none;stroke-dashoffset:0;stroke-opacity:1"
       d="m 327.31445,188.95117 -21.09765,21.09766 21.09765,21.09765 0,-42.19531 z"
       transform="translate(-613.74207,6.8206976)"
       id="use4579"
       inkscape:connector-curvature="0" />
    <path
       style="opacity:1;fill:#06a79f;fill-opacity:1;stroke:none;stroke-width:4;stroke-linecap:round;stroke-miterlimit:4;stroke-dasharray:none;stroke-dashoffset:0;stroke-opacity:1"
       d="m 306.2168,210.04883 -31.75977,31.75976 0,32.64844 31.75977,31.75977 21.09765,-21.09766 0,-53.97266 -21.09765,-21.09765 z"
       transform="translate(-613.74207,6.8206976)"
       id="use4581"
       inkscape:connector-curvature="0" />
    <path
       style="opacity:1;fill:#af9ebb;fill-opacity:1;stroke:none;stroke-width:4;stroke-linecap:round;stroke-miterlimit:4;stroke-dasharray:none;stroke-dashoffset:0;stroke-opacity:1"
       d="m 274.45703,274.45703 0,59.65625 3.86133,0 27.89844,-27.89648 -31.75977,-31.75977 z"
       transform="translate(-613.74207,6.8206976)"
       id="use4583"
       inkscape:connector-curvature="0" />
    <path
       style="opacity:1;fill:#03a79f;fill-opacity:1;stroke:none;stroke-width:4;stroke-linecap:round;stroke-miterlimit:4;stroke-dasharray:none;stroke-dashoffset:0;stroke-opacity:1"
       d="m 169.58203,346.68359 -7.61523,7.61524 21.35547,21.35547 c -5.61629,-9.15441 -10.25539,-18.86957 -13.74024,-28.97071 z"
       transform="translate(-613.74207,6.8206976)"
       id="use4585"
       inkscape:connector-curvature="0" />
    <path
       style="opacity:1;fill:#ee7eae;fill-opacity:1;stroke:none;stroke-width:4;stroke-linecap:round;stroke-miterlimit:4;stroke-dasharray:none;stroke-dashoffset:0;stroke-opacity:1"
       d="m 161.9668,354.29883 -34.01953,34.01953 A 198.57143,198.57143 0 0 0 167.68359,444.75 L 207,405.43164 c -9.05761,-8.94357 -17.04599,-18.96777 -23.67773,-29.77734 L 161.9668,354.29883 Z"
       transform="translate(-613.74207,6.8206976)"
       id="use4587"
       inkscape:connector-curvature="0" />
    <path
       style="opacity:1;fill:#04a99d;fill-opacity:1;stroke:none;stroke-width:4;stroke-linecap:round;stroke-miterlimit:4;stroke-dasharray:none;stroke-dashoffset:0;stroke-opacity:1"
       d="m 448.20703,164.22656 -39.15234,39.15039 c 12.64673,12.80748 23.13611,27.73797 30.625,43.96875 l 10.78711,10.78711 37.07226,-37.07422 a 198.57143,198.57143 0 0 0 -39.33203,-56.83203 z"
       transform="translate(-613.74207,6.8206976)"
       id="use4589"
       inkscape:connector-curvature="0" />
    <path
       style="opacity:1;fill:#65b0c8;fill-opacity:1;stroke:none;stroke-width:4;stroke-linecap:round;stroke-miterlimit:4;stroke-dasharray:none;stroke-dashoffset:0;stroke-opacity:1"
       d="m 439.67969,247.3457 c 2.32787,5.04524 4.36624,10.2142 6.08984,15.48438 l 4.69727,-4.69727 -10.78711,-10.78711 z"
       transform="translate(-613.74207,6.8206976)"
       id="use4591"
       inkscape:connector-curvature="0" />
    <path
       style="opacity:1;fill:#c7dcb2;fill-opacity:1;stroke:none;stroke-width:4;stroke-linecap:round;stroke-miterlimit:4;stroke-dasharray:none;stroke-dashoffset:0;stroke-opacity:1"
       d="m 327.31445,285.11914 -21.09765,21.09766 21.09765,21.09765 0,-42.19531 z"
       transform="translate(-613.74207,6.8206976)"
       id="use4593"
       inkscape:connector-curvature="0" />
    <path
       style="opacity:1;fill:#3bb8c6;fill-opacity:1;stroke:none;stroke-width:4;stroke-linecap:round;stroke-miterlimit:4;stroke-dasharray:none;stroke-dashoffset:0;stroke-opacity:1"
       d="m 306.2168,306.2168 -27.89844,27.89648 48.99609,0 0,-6.79883 -21.09765,-21.09765 z"
       transform="translate(-613.74207,6.8206976)"
       id="use4595"
       inkscape:connector-curvature="0" />
    <path
       style="opacity:1;fill:#f6f48e;fill-opacity:1;stroke:none;stroke-width:4;stroke-linecap:round;stroke-miterlimit:4;stroke-dasharray:none;stroke-dashoffset:0;stroke-opacity:1"
       d="m 235.33984,427.67383 22.79297,22.79297 8.32813,-8.32813 c -10.87307,-3.55564 -21.31895,-8.4509 -31.1211,-14.46484 z"
       transform="translate(-613.74207,6.8206976)"
       id="use4597"
       inkscape:connector-curvature="0" />
    <path
       style="opacity:1;fill:#ee2126;fill-opacity:1;stroke:none;stroke-width:4;stroke-linecap:round;stroke-miterlimit:4;stroke-dasharray:none;stroke-dashoffset:0;stroke-opacity:1"
       d="M 207,405.43164 167.68359,444.75 a 198.57143,198.57143 0 0 0 56.95313,39.21094 L 258.13281,450.4668 235.33984,427.67383 C 225.10564,421.39481 215.57558,413.89924 207,405.43164 Z"
       transform="translate(-613.74207,6.8206976)"
       id="use4599"
       inkscape:connector-curvature="0" />
    <path
       style="opacity:1;fill:#f6eb30;fill-opacity:1;stroke:none;stroke-width:4;stroke-linecap:round;stroke-miterlimit:4;stroke-dasharray:none;stroke-dashoffset:0;stroke-opacity:1"
       d="m 487.53906,221.05859 -37.07226,37.07422 48.08203,48.08399 7.10156,-7.10157 a 198.57143,198.57143 0 0 0 -18.11133,-78.05664 z"
       transform="translate(-613.74207,6.8206976)"
       id="use4601"
       inkscape:connector-curvature="0" />
    <path
       style="opacity:1;fill:#ea807e;fill-opacity:1;stroke:none;stroke-width:4;stroke-linecap:round;stroke-miterlimit:4;stroke-dasharray:none;stroke-dashoffset:0;stroke-opacity:1"
       d="m 450.4668,258.13281 -4.69727,4.69727 c 4.29353,13.1281 6.64068,26.8752 6.64063,40.85547 -9e-5,15.32455 -2.81774,30.3689 -7.93164,44.625 l 5.98828,5.98828 48.08203,-48.08203 -48.08203,-48.08399 z"
       transform="translate(-613.74207,6.8206976)"
       id="use4603"
       inkscape:connector-curvature="0" />
    <path
       style="opacity:1;fill:#dc5540;fill-opacity:1;stroke:none;stroke-width:4;stroke-linecap:round;stroke-miterlimit:4;stroke-dasharray:none;stroke-dashoffset:0;stroke-opacity:1"
       d="m 444.47852,348.31055 c -2.72473,7.59574 -6.10454,14.96512 -10.0586,22.03515 l 16.04688,-16.04687 -5.98828,-5.98828 z"
       transform="translate(-613.74207,6.8206976)"
       id="use4605"
       inkscape:connector-curvature="0" />
    <path
       style="opacity:1;fill:#ac3666;fill-opacity:1;stroke:none;stroke-width:4;stroke-linecap:round;stroke-miterlimit:4;stroke-dasharray:none;stroke-dashoffset:0;stroke-opacity:1"
       d="m 373.97461,430.79102 c -8.7448,4.89068 -17.94965,8.89891 -27.4707,11.88086 l 7.79492,7.79492 19.67578,-19.67578 z"
       transform="translate(-613.74207,6.8206976)"
       id="use4607"
       inkscape:connector-curvature="0" />
    <path
       style="opacity:1;fill:#dfb92a;fill-opacity:1;stroke:none;stroke-width:4;stroke-linecap:round;stroke-miterlimit:4;stroke-dasharray:none;stroke-dashoffset:0;stroke-opacity:1"
       d="m 266.46094,442.13867 -8.32813,8.32813 48.08399,48.08203 48.08203,-48.08203 -7.79492,-7.79492 c -12.62384,3.95371 -25.79911,6.10929 -39.18946,6.10937 -13.97999,6e-5 -27.72532,-2.34948 -40.85351,-6.64258 z"
       transform="translate(-613.74207,6.8206976)"
       id="use4609"
       inkscape:connector-curvature="0" />
    <path
       style="opacity:1;fill:#009945;fill-opacity:1;stroke:none;stroke-width:4;stroke-linecap:round;stroke-miterlimit:4;stroke-dasharray:none;stroke-dashoffset:0;stroke-opacity:1"
       d="m 258.13281,450.4668 -33.49609,33.49414 a 198.57143,198.57143 0 0 0 78.03711,18.13086 l 3.54297,-3.54297 -48.08399,-48.08203 z"
       transform="translate(-613.74207,6.8206976)"
       id="use4611"
       inkscape:connector-curvature="0" />
    <path
       style="opacity:1;fill:#bb906f;fill-opacity:1;stroke:none;stroke-width:4;stroke-linecap:round;stroke-miterlimit:4;stroke-dasharray:none;stroke-dashoffset:0;stroke-opacity:1"
       d="m 505.65039,299.11523 -7.10156,7.10157 6.99805,6.99804 a 198.57143,198.57143 0 0 0 0.33789,-9.52929 198.57143,198.57143 0 0 0 -0.23438,-4.57032 z"
       transform="translate(-613.74207,6.8206976)"
       id="use4613"
       inkscape:connector-curvature="0" />
    <path
       style="opacity:1;fill:#ed2c77;fill-opacity:1;stroke:none;stroke-width:4;stroke-linecap:round;stroke-miterlimit:4;stroke-dasharray:none;stroke-dashoffset:0;stroke-opacity:1"
       d="m 498.54883,306.2168 -48.08203,48.08203 35.55859,35.55859 a 198.57143,198.57143 0 0 0 19.52149,-76.64258 l -6.99805,-6.99804 z"
       transform="translate(-613.74207,6.8206976)"
       id="use4615"
       inkscape:connector-curvature="0" />
    <path
       style="opacity:1;fill:#2dabe3;fill-opacity:1;stroke:none;stroke-width:4;stroke-linecap:round;stroke-miterlimit:4;stroke-dasharray:none;stroke-dashoffset:0;stroke-opacity:1"
       d="m 450.4668,354.29883 -16.04688,16.04687 c -7.43579,13.29555 -16.90657,25.523 -27.90234,36.17188 l 39.24023,39.24023 a 198.57143,198.57143 0 0 0 40.26758,-55.90039 L 450.4668,354.29883 Z"
       transform="translate(-613.74207,6.8206976)"
       id="use4617"
       inkscape:connector-curvature="0" />
    <path
       style="opacity:1;fill:#2c3291;fill-opacity:1;stroke:none;stroke-width:4;stroke-linecap:round;stroke-miterlimit:4;stroke-dasharray:none;stroke-dashoffset:0;stroke-opacity:1"
       d="m 406.51758,406.51758 c -9.76668,9.45856 -20.73357,17.66882 -32.54297,24.27344 l -19.67578,19.67578 34.23437,34.23437 a 198.57143,198.57143 0 0 0 57.22461,-38.94336 l -39.24023,-39.24023 z"
       transform="translate(-613.74207,6.8206976)"
       id="use4619"
       inkscape:connector-curvature="0" />
    <path
       style="opacity:1;fill:#5a4b43;fill-opacity:1;stroke:none;stroke-width:4;stroke-linecap:round;stroke-miterlimit:4;stroke-dasharray:none;stroke-dashoffset:0;stroke-opacity:1"
       d="m 354.29883,450.4668 -48.08203,48.08203 3.58203,3.58203 A 198.57143,198.57143 0 0 0 388.5332,484.70117 L 354.29883,450.4668 Z"
       transform="translate(-613.74207,6.8206976)"
       id="use4621"
       inkscape:connector-curvature="0" />
    <path
       style="opacity:1;fill:#3bb8c6;fill-opacity:1;stroke:none;stroke-width:4;stroke-linecap:round;stroke-miterlimit:4;stroke-dasharray:none;stroke-dashoffset:0;stroke-opacity:1"
       d="m 306.2168,498.54883 -3.54297,3.54297 a 198.57143,198.57143 0 0 0 4.64062,0.16406 198.57143,198.57143 0 0 0 2.48438,-0.125 l -3.58203,-3.58203 z"
       transform="translate(-613.74207,6.8206976)"
       id="use4623"
       inkscape:connector-curvature="0" />
  </g>
  <metadata
     id="metadata6223">
    <rdf:RDF>
      <cc:Work
         rdf:about="">
        <dc:title></dc:title>
        <dc:format>image/svg+xml</dc:format>
        <dc:type
           rdf:resource="http://purl.org/dc/dcmitype/StillImage" />
      </cc:Work>
    </rdf:RDF>
  </metadata>
</svg>
